<?xml version="1.0" encoding="utf-8"?>
<!-- Generator: Adobe Illustrator 27.5.0, SVG Export Plug-In . SVG Version: 6.00 Build 0)  -->
<svg version="1.1" xmlns="http://www.w3.org/2000/svg" xmlns:xlink="http://www.w3.org/1999/xlink" x="0px" y="0px"
	 viewBox="0 0 2475 1650" style="enable-background:new 0 0 2475 1650;" xml:space="preserve">
<g id="Background">
	<rect style="fill:#FFFFFF;" width="2475" height="1650"/>
</g>
<g id="Illustration">
	<g>
		<linearGradient id="SVGID_1_" gradientUnits="userSpaceOnUse" x1="161.8728" y1="773.1587" x2="2370" y2="773.1587">
			<stop  offset="0" style="stop-color:#DAE3FE"/>
			<stop  offset="1" style="stop-color:#E9EFFD"/>
		</linearGradient>
		<path style="fill:url(#SVGID_1_);" d="M2158.427,1359.452c102.888-27.216,186.646-86.976,206.155-198.61
			c25.638-146.709-43.372-251.751-130.065-359.152c-57.484-71.215-71.808-139.932-57.459-226.594
			c20.865-126.016,51.085-243.467-42.928-349.851c-62.248-70.439-157.905-107.034-251.278-103.635
			c-134.563,4.899-220.13,95.875-334.955,150.207c-108.079,51.14-241.788,87.94-360.41,55.803
			c-145.685-39.47-247.38-169.793-404.922-178.204c-65.95-3.521-136.087,17.373-185.56,62.626
			c-52.141,47.693-75.015,121.445-148.142,145.035c-33.788,10.899-70.354,6.588-105.55,11.005
			C200.165,386.046,146.44,528.215,165.621,655.789c27.479,182.769,78.198,362.559,148.544,533.402
			c20.184,49.019,42.378,97.915,75.273,139.485c77.411,97.824,182.954,94.743,297.451,96.038
			c142.988,1.617,285.833-6.448,428.699-10.942c205.016-6.448,409.991-14.699,614.863-24.794
			C1866.28,1382.286,2025.741,1394.549,2158.427,1359.452z"/>
		<g>
			<defs>
				
					<rect id="SVGID_00000103245084908238408800000016250577296151664046_" x="1078.394" y="115.015" width="1185.627" height="1046.141"/>
			</defs>
			<clipPath id="SVGID_00000044873899424517551080000017741918407838107309_">
				<use xlink:href="#SVGID_00000103245084908238408800000016250577296151664046_"  style="overflow:visible;"/>
			</clipPath>
			<g style="clip-path:url(#SVGID_00000044873899424517551080000017741918407838107309_);">
				<g>
					<path style="fill:#BDD0FB;" d="M1497.764,292.659c0.203-10.827,8.976-19.737,19.732-19.737h406.523
						c10.899,0,21.604,9.375,21.604,20.35v980.929c0,5.28-3.021,10.343-6.733,14.071c-3.713,3.728-9.213,5.815-14.457,5.801
						l-425.042-1.168c-5.289-0.015-10.467-2.166-14.167-5.972c-3.699-3.807-5.785-9.067-5.686-14.392L1497.764,292.659z"/>
					<g style="opacity:0.5;">
						<g>
							<polygon style="fill:#FFFFFF;" points="1797.148,388.512 1912.957,388.356 1913.876,328.585 1797.954,328.585 							"/>
							<polygon style="fill:#FFFFFF;" points="1667.338,388.483 1783.031,388.326 1783.824,328.585 1668.018,328.585 							"/>
							<polygon style="fill:#FFFFFF;" points="1537.659,388.452 1653.236,388.296 1653.903,328.585 1538.214,328.585 							"/>
						</g>
						<g>
							<polygon style="fill:#FFFFFF;" points="1795.7,495.799 1911.308,495.874 1912.224,436.493 1796.504,436.445 							"/>
							<polygon style="fill:#FFFFFF;" points="1666.117,495.716 1781.609,495.79 1782.399,436.439 1666.795,436.391 							"/>
							<g>
								<polygon style="fill:#FFFFFF;" points="1536.664,495.632 1652.04,495.706 1652.704,436.385 1537.216,436.337 								"/>
							</g>
						</g>
						<g>
							<polygon style="fill:#FFFFFF;" points="1794.258,602.349 1909.665,602.471 1910.577,543.296 1795.059,543.2 							"/>
							<polygon style="fill:#FFFFFF;" points="1664.9,602.212 1780.191,602.334 1780.978,543.189 1665.576,543.093 							"/>
							<polygon style="fill:#FFFFFF;" points="1535.672,602.075 1650.847,602.197 1651.509,543.081 1536.223,542.986 							"/>
						</g>
						<g>
							<polygon style="fill:#FFFFFF;" points="1792.821,708.529 1908.027,708.699 1908.936,649.728 1793.619,649.585 							"/>
							<polygon style="fill:#FFFFFF;" points="1663.687,708.34 1778.778,708.508 1779.563,649.568 1664.36,649.425 							"/>
							<polygon style="fill:#FFFFFF;" points="1534.683,708.15 1649.659,708.319 1650.318,649.408 1535.232,649.265 							"/>
						</g>
						<g>
							<polygon style="fill:#FFFFFF;" points="1791.389,814.343 1906.395,814.559 1907.301,755.793 1792.184,755.603 							"/>
							<polygon style="fill:#FFFFFF;" points="1662.479,814.101 1777.37,814.317 1778.152,755.58 1663.15,755.39 							"/>
							<polygon style="fill:#FFFFFF;" points="1533.698,813.859 1648.475,814.075 1649.132,755.367 1534.245,755.177 							"/>
						</g>
						<g>
							<polygon style="fill:#FFFFFF;" points="1789.961,919.792 1904.768,920.054 1905.671,861.491 1790.754,861.254 							"/>
							<polygon style="fill:#FFFFFF;" points="1661.274,919.497 1775.967,919.76 1776.746,861.225 1661.943,860.989 							"/>
							<polygon style="fill:#FFFFFF;" points="1532.716,919.203 1647.294,919.465 1647.949,860.96 1533.261,860.724 							"/>
						</g>
						<g>
							<polygon style="fill:#FFFFFF;" points="1788.538,1024.877 1903.147,1025.186 1904.047,966.824 1789.328,966.541 							"/>
							<polygon style="fill:#FFFFFF;" points="1660.074,1024.531 1774.569,1024.84 1775.345,966.507 1660.741,966.224 							"/>
							<polygon style="fill:#FFFFFF;" points="1531.737,1024.185 1646.118,1024.494 1646.771,966.189 1532.281,965.907 							"/>
						</g>
						<g>
							<polygon style="fill:#FFFFFF;" points="1787.121,1129.601 1901.532,1129.956 1902.429,1071.795 1787.908,1071.466 							"/>
							<polygon style="fill:#FFFFFF;" points="1658.878,1129.204 1773.176,1129.558 1773.949,1071.426 1659.542,1071.097 							"/>
							<polygon style="fill:#FFFFFF;" points="1530.762,1128.807 1644.946,1129.161 1645.597,1071.057 1531.303,1070.728 							"/>
						</g>
						<g>
							<polygon style="fill:#FFFFFF;" points="1785.708,1233.966 1899.922,1234.367 1900.816,1176.405 1786.493,1176.03 							"/>
							<polygon style="fill:#FFFFFF;" points="1657.686,1233.517 1771.787,1233.917 1772.558,1175.984 1658.348,1175.61 							"/>
							<polygon style="fill:#FFFFFF;" points="1529.79,1233.07 1643.778,1233.469 1644.427,1175.564 1530.33,1175.19 							"/>
						</g>
					</g>
				</g>
				<g>
					<path style="fill:#91B3FA;" d="M1857.334,603.935c0.177-6.059,7.879-11.046,17.319-11.046h356.819
						c9.567,0,18.962,5.246,18.962,11.388v548.975c0,2.955-2.652,5.788-5.91,7.875c-3.259,2.086-8.087,3.254-12.689,3.246
						l-373.074-0.654c-4.642-0.008-9.187-1.212-12.435-3.342c-3.247-2.13-5.078-5.075-4.99-8.054L1857.334,603.935z"/>
					<g style="opacity:0.5;">
						<g>
							<polygon style="fill:#FFFFFF;" points="2120.113,657.579 2221.763,657.492 2222.569,624.041 2120.82,624.041 							"/>
							<polygon style="fill:#FFFFFF;" points="2006.175,657.563 2107.723,657.475 2108.418,624.041 2006.772,624.041 							"/>
							<polygon style="fill:#FFFFFF;" points="1892.351,657.546 1993.797,657.458 1994.382,624.041 1892.838,624.041 							"/>
						</g>
						<g>
							<polygon style="fill:#FFFFFF;" points="2118.843,717.622 2220.315,717.664 2221.119,684.432 2119.548,684.405 							"/>
							<polygon style="fill:#FFFFFF;" points="2005.103,717.576 2106.474,717.617 2107.167,684.402 2005.698,684.375 							"/>
							<polygon style="fill:#FFFFFF;" points="1891.478,717.529 1992.746,717.57 1993.33,684.371 1891.962,684.344 							"/>
						</g>
						<g>
							<polygon style="fill:#FFFFFF;" points="2117.576,777.252 2218.873,777.321 2219.673,744.204 2118.279,744.15 							"/>
							<polygon style="fill:#FFFFFF;" points="2004.035,777.176 2105.229,777.244 2105.92,744.144 2004.628,744.09 							"/>
							<polygon style="fill:#FFFFFF;" points="1890.607,777.099 1991.7,777.168 1992.281,744.084 1891.09,744.03 							"/>
						</g>
						<g>
							<polygon style="fill:#FFFFFF;" points="2116.315,836.676 2217.435,836.771 2218.233,803.769 2117.015,803.688 							"/>
							<polygon style="fill:#FFFFFF;" points="2002.97,836.57 2103.99,836.665 2104.678,803.679 2003.561,803.599 							"/>
							<polygon style="fill:#FFFFFF;" points="1889.739,836.464 1990.657,836.558 1991.236,803.589 1890.22,803.509 							"/>
						</g>
						<g>
							<polygon style="fill:#FFFFFF;" points="2115.058,895.895 2216.003,896.016 2216.798,863.127 2115.756,863.021 							"/>
							<polygon style="fill:#FFFFFF;" points="2001.909,895.759 2102.753,895.88 2103.44,863.008 2002.498,862.901 							"/>
							<polygon style="fill:#FFFFFF;" points="1888.874,895.624 1989.618,895.744 1990.195,862.888 1889.354,862.782 							"/>
						</g>
						<g>
							<polygon style="fill:#FFFFFF;" points="2113.805,954.909 2214.575,955.056 2215.368,922.281 2114.5,922.148 							"/>
							<polygon style="fill:#FFFFFF;" points="2000.852,954.744 2101.522,954.891 2102.206,922.132 2001.439,922 							"/>
							<polygon style="fill:#FFFFFF;" points="1888.012,954.579 1988.582,954.726 1989.156,921.984 1888.491,921.851 							"/>
						</g>
						<g>
							<polygon style="fill:#FFFFFF;" points="2112.556,1013.72 2213.152,1013.892 2213.942,981.23 2113.25,981.072 							"/>
							<polygon style="fill:#FFFFFF;" points="1999.799,1013.526 2100.295,1013.699 2100.976,981.052 2000.384,980.894 							"/>
							<polygon style="fill:#FFFFFF;" points="1887.153,1013.332 1987.549,1013.505 1988.123,980.875 1887.63,980.717 							"/>
						</g>
						<g>
							<polygon style="fill:#FFFFFF;" points="2111.312,1072.328 2211.734,1072.527 2212.522,1039.977 2112.003,1039.793 							"/>
							<polygon style="fill:#FFFFFF;" points="1998.749,1072.106 2099.072,1072.304 2099.751,1039.77 1999.332,1039.586 							"/>
							<polygon style="fill:#FFFFFF;" points="1886.297,1071.884 1986.521,1072.082 1987.091,1039.564 1886.773,1039.38 							"/>
						</g>
						<g>
							<polygon style="fill:#FFFFFF;" points="2110.072,1130.736 2210.322,1130.96 2211.106,1098.522 2110.761,1098.312 							"/>
							<polygon style="fill:#FFFFFF;" points="1997.702,1130.484 2097.853,1130.708 2098.53,1098.286 1998.283,1098.077 							"/>
							<polygon style="fill:#FFFFFF;" points="1885.444,1130.234 1985.495,1130.458 1986.064,1098.051 1885.918,1097.842 							"/>
						</g>
					</g>
				</g>
				<g>
					<path style="fill:#91B3FA;" d="M1133.943,664.619c0.119-3.437,5.293-6.202,11.635-6.202h384.666
						c6.427,0,13.254,2.851,13.254,6.334v486.593c0,2.6-2.718,5.094-6.114,6.93c-3.397,1.836-8.406,2.864-13.204,2.857
						l-388.879-0.575c-4.839-0.007-9.571-1.067-12.956-2.941c-3.385-1.875-5.291-4.414-5.2-7.036L1133.943,664.619z"/>
					<g style="opacity:0.51;">
						<polygon style="fill:#FFFFFF;" points="1354.851,692.901 1480.684,692.665 1480.638,684.131 1354.945,684.346 						"/>
						<polygon style="fill:#FFFFFF;" points="1354.506,724.333 1480.857,724.021 1480.81,715.417 1354.601,715.708 						"/>
						<polygon style="fill:#FFFFFF;" points="1354.158,756.025 1481.031,755.635 1480.983,746.96 1354.254,747.329 						"/>
						<polygon style="fill:#FFFFFF;" points="1353.808,787.981 1481.206,787.511 1481.158,778.765 1353.904,779.212 						"/>
						<polygon style="fill:#FFFFFF;" points="1353.454,820.202 1481.383,819.652 1481.334,810.833 1353.551,811.36 						"/>
						<polygon style="fill:#FFFFFF;" points="1352.738,885.457 1481.741,884.743 1481.692,875.775 1352.837,876.466 						"/>
						<polygon style="fill:#FFFFFF;" points="1351.641,985.423 1482.289,984.451 1482.239,975.254 1351.742,976.201 						"/>
						<polygon style="fill:#FFFFFF;" points="1353.098,852.693 1481.561,852.062 1481.512,843.169 1353.195,843.777 						"/>
						<polygon style="fill:#FFFFFF;" points="1352.375,918.498 1481.922,917.7 1481.872,908.656 1352.475,909.431 						"/>
						<polygon style="fill:#FFFFFF;" points="1352.01,951.819 1482.105,950.934 1482.055,941.814 1352.11,942.675 						"/>
						<polygon style="fill:#FFFFFF;" points="1351.269,1019.314 1482.475,1018.254 1482.424,1008.978 1351.371,1010.013 						"/>
						<polygon style="fill:#FFFFFF;" points="1350.894,1053.496 1482.662,1052.346 1482.611,1042.99 1350.997,1044.115 						"/>
						<polygon style="fill:#FFFFFF;" points="1350.515,1087.974 1482.851,1086.732 1482.8,1077.296 1350.619,1078.512 						"/>
						<polygon style="fill:#FFFFFF;" points="1350.133,1122.749 1483.042,1121.414 1482.99,1111.896 1350.238,1113.205 						"/>
						<polygon style="fill:#FFFFFF;" points="1189.875,693.21 1316.497,692.973 1316.634,684.412 1190.154,684.629 						"/>
						<polygon style="fill:#FFFFFF;" points="1188.847,724.743 1315.994,724.428 1316.132,715.797 1189.129,716.09 						"/>
						<polygon style="fill:#FFFFFF;" points="1187.812,756.537 1315.487,756.144 1315.626,747.441 1188.096,747.812 						"/>
						<polygon style="fill:#FFFFFF;" points="1186.767,788.596 1314.975,788.124 1315.116,779.349 1187.054,779.799 						"/>
						<polygon style="fill:#FFFFFF;" points="1185.715,820.922 1314.459,820.37 1314.601,811.521 1186.003,812.052 						"/>
						<polygon style="fill:#FFFFFF;" points="1183.582,886.393 1313.415,885.675 1313.558,876.677 1183.876,877.372 						"/>
						<polygon style="fill:#FFFFFF;" points="1180.315,986.696 1311.814,985.719 1311.962,976.49 1180.616,977.443 						"/>
						<polygon style="fill:#FFFFFF;" points="1184.653,853.521 1313.939,852.885 1314.082,843.963 1184.944,844.575 						"/>
						<polygon style="fill:#FFFFFF;" points="1182.502,919.545 1312.886,918.741 1313.031,909.668 1182.798,910.448 						"/>
						<polygon style="fill:#FFFFFF;" points="1181.413,952.978 1312.352,952.088 1312.499,942.937 1181.712,943.803 						"/>
						<polygon style="fill:#FFFFFF;" points="1179.207,1020.704 1311.272,1019.637 1311.421,1010.329 1179.511,1011.371 						"/>
						<polygon style="fill:#FFFFFF;" points="1178.09,1055.005 1310.724,1053.847 1310.875,1044.458 1178.396,1045.592 						"/>
						<polygon style="fill:#FFFFFF;" points="1176.963,1089.602 1310.172,1088.352 1310.324,1078.883 1177.272,1080.108 						"/>
						<polygon style="fill:#FFFFFF;" points="1175.826,1124.5 1309.616,1123.156 1309.769,1113.604 1176.138,1114.922 						"/>
					</g>
				</g>
			</g>
		</g>
		<g>
			<g>
				<path style="fill:#91B3FA;" d="M787.872,933.25c-24.909-93.542-78.015-169.733-142.974-216.19
					c-58.069-41.53-98.392-103.733-111.112-173.911c-1.337-7.377-2.99-14.79-4.967-22.217
					c-29.957-112.5-123.173-185.344-208.203-162.702c-85.031,22.642-129.676,132.196-99.719,244.696
					c6.126,23.004,14.898,44.344,25.705,63.547c34.489,61.285,45.735,133.302,28.786,201.582
					c-15.147,61.02-15.073,130.571,3.601,200.701c27.853,104.595,90.96,187.503,166.471,231.401
					c28.562,16.605,54.003,38.292,74.707,64.003c34.406,42.726,84.695,64.495,132.433,51.783
					c51.499-13.714,85.614-63.715,90.716-123.77c2.887-33.984,12.428-66.962,26.907-97.869
					C804.406,1121.343,813.056,1027.827,787.872,933.25z"/>
				<path style="fill:#7D97F4;" d="M382.259,469.98c30.907,71.393,59.495,143.722,87.327,216.349
					c6.966,18.153,13.639,36.417,20.371,54.658l10.094,27.364l9.865,27.448c6.506,18.325,13.265,36.559,19.563,54.959l18.899,55.193
					c12.129,36.955,24.571,73.807,36.012,110.988c5.746,18.581,11.854,37.047,17.224,55.746l16.364,56.008
					c21.063,74.895,40.253,150.354,55.587,226.637l-3.281,0.694l-13.646-56.638l-3.38-14.162l-3.733-14.077l-7.519-28.139
					l-7.465-28.147c-2.471-9.386-5.292-18.682-7.92-28.026c-5.382-18.655-10.615-37.351-16.118-55.97
					c-22.493-74.338-45.973-148.377-70.977-221.922c-12.783-36.677-25.251-73.461-38.29-110.051l-9.703-27.468l-9.934-27.388
					c-6.612-18.262-13.224-36.525-20.021-54.721c-13.282-36.506-26.825-72.921-40.666-109.223
					c-13.65-36.374-27.647-72.63-41.75-108.825L382.259,469.98z"/>
			</g>
			<g>
				<path style="fill:#BDD0FB;" d="M527.065,1119.081c-39.059-41.25-87.761-65.682-134.221-71.48
					c-41.533-5.183-79.732-25.977-105.965-58.591c-2.757-3.428-5.687-6.787-8.788-10.062
					c-46.976-49.61-115.379-61.114-152.783-25.696c-37.404,35.418-29.645,104.347,17.331,153.956
					c9.605,10.144,20.106,18.692,31.054,25.57c34.941,21.95,60.93,55.923,71.364,95.844c9.323,35.677,28.872,71.499,58.156,102.425
					c43.675,46.124,99.407,71.224,150.58,72.756c19.356,0.579,38.531,4.65,56.398,12.118c29.691,12.408,61.676,9.581,82.676-10.303
					c22.653-21.451,26.182-56.748,11.96-89.122c-8.048-18.319-12.389-37.979-13.609-57.952
					C588.339,1211.395,566.556,1160.785,527.065,1119.081z"/>
				<path style="fill:#7D97F4;" d="M188.378,993.624c35.933,28.16,70.934,57.45,105.63,87.104
					c8.677,7.41,17.235,14.958,25.816,22.478l12.871,11.283l12.777,11.391c8.488,7.626,17.082,15.135,25.484,22.858l25.209,23.165
					c16.609,15.657,33.35,31.173,49.668,47.139c8.17,7.971,16.493,15.781,24.501,23.918l24.134,24.294
					c31.848,32.714,62.892,66.242,92.183,101.271l-1.494,1.274l-22.911-25.377l-5.712-6.354l-5.87-6.213l-11.763-12.401
					l-11.737-12.42c-3.905-4.147-7.963-8.15-11.938-12.232c-8.003-8.111-15.941-16.283-23.996-24.342
					c-32.428-32.027-65.282-63.626-98.781-94.543c-16.867-15.331-33.602-30.805-50.577-46.02l-12.699-11.446l-12.795-11.34
					c-8.526-7.565-17.052-15.129-25.653-22.608c-17.076-15.104-34.261-30.087-51.567-44.93
					c-17.229-14.933-34.602-29.707-52.013-44.422L188.378,993.624z"/>
			</g>
		</g>
		<g>
			
				<linearGradient id="SVGID_00000163058402505569736670000017434744189320588467_" gradientUnits="userSpaceOnUse" x1="2997.2073" y1="388.77" x2="2813.2505" y2="614.9191" gradientTransform="matrix(0.9922 -0.1247 0.1247 0.9922 -2319.1553 630.3192)">
				<stop  offset="0" style="stop-color:#FF928E"/>
				<stop  offset="1" style="stop-color:#FEB3B1"/>
			</linearGradient>
			<path style="fill:url(#SVGID_00000163058402505569736670000017434744189320588467_);" d="M685.625,706.34
				c-1.198-2.29-4.586-1.929-5.277,0.561c-2.561,9.215-8.757,25.296-21.76,31.006c-0.655,0.288-1.275,0.578-1.875,0.872
				c-0.59-1.768-0.598-3.821,0.814-5.98c4.043-6.178-3.255-14.615-3.255-14.615s-0.483,7.431-6.132,12.11
				c-4.865,4.03-7.201,12.999-3.877,20.356c7.037,27.334,17.575,63.487-23.473,89.899c-41.048,26.412-98.855-49.845-98.855-49.845
				l28.691,90.955c0,0,44.285,32.68,95.796-13.273c51.511-45.953,17.368-112.821,17.368-112.821S703.081,739.715,685.625,706.34z"/>
			
				<linearGradient id="SVGID_00000183968240505157065670000004545513576783212982_" gradientUnits="userSpaceOnUse" x1="-4195.5874" y1="898.1867" x2="-4316.2163" y2="1041.5227" gradientTransform="matrix(-0.9602 0.2794 0.2794 0.9602 -4004.8018 929.3496)">
				<stop  offset="0" style="stop-color:#09005D"/>
				<stop  offset="1" style="stop-color:#1A0F91"/>
			</linearGradient>
			<path style="fill:url(#SVGID_00000183968240505157065670000004545513576783212982_);" d="M514.747,657.063
				c0,0,11.892-53.345-49.212-39.223c0,0-29.661-4.847-31.17,23.149c0,0-19.119,12.598-5.12,36.826c0,0-56.821-21.948-81.578,27.857
				c-24.757,49.804-2.001,77.209,21.856,84.347c0,0-19.328,9.705-10.179,31.617s55.48,37.36,82.85,10.712
				c0,0,77.877,10.292,76.319-44.717c0,0,36.222-23.39-1.823-68.851C478.644,673.319,514.747,657.063,514.747,657.063z"/>
			
				<linearGradient id="SVGID_00000006695488549297164390000012105543593263400889_" gradientUnits="userSpaceOnUse" x1="2758.9556" y1="1131.9215" x2="2754.4097" y2="1691.0557" gradientTransform="matrix(0.9922 -0.1247 0.1247 0.9922 -2319.1553 630.3192)">
				<stop  offset="0" style="stop-color:#FE7062"/>
				<stop  offset="1" style="stop-color:#FF928E"/>
			</linearGradient>
			<path style="fill:url(#SVGID_00000006695488549297164390000012105543593263400889_);" d="M518.103,780.711
				c-12.279-3.681-48.031-10.477-82.037,20.905c-5.768,5.322-8.125,13.41-6.068,20.983c9.134,33.627,33.233,132.975,12.102,175.961
				c0,0,37.237,41.049,77.861,7.964c0,0,18.227-79.439,42.1-114.313c16.483-24.077-26.282-90.412-37.102-106.438
				C523.322,783.348,520.907,781.552,518.103,780.711z"/>
			
				<linearGradient id="SVGID_00000065794036871769221020000005132447754283806650_" gradientUnits="userSpaceOnUse" x1="517.3226" y1="690.2668" x2="421.3226" y2="926.2669">
				<stop  offset="0" style="stop-color:#FF928E"/>
				<stop  offset="1" style="stop-color:#FEB3B1"/>
			</linearGradient>
			<path style="fill:url(#SVGID_00000065794036871769221020000005132447754283806650_);" d="M484.2,713.904
				c0,0-18.16,51.366-19.526,74.026c0,0,20.07,9.127,38.982-6.277c0,0,1.984-51.306,4.852-60.493L484.2,713.904z"/>
			
				<linearGradient id="SVGID_00000142173016667409834720000005589012964697509565_" gradientUnits="userSpaceOnUse" x1="-4335.7568" y1="1105.8909" x2="-4419.7568" y2="989.8911" gradientTransform="matrix(-0.9602 0.2794 0.2794 0.9602 -4004.8018 929.3496)">
				<stop  offset="0" style="stop-color:#FF928E"/>
				<stop  offset="1" style="stop-color:#FEB3B1"/>
			</linearGradient>
			<path style="fill:url(#SVGID_00000142173016667409834720000005589012964697509565_);" d="M509.424,643.868
				c0,0,47.497,66.47,19.105,85.777c-28.392,19.307-62.204-27.93-62.204-27.93s-11.021-36.382,0.503-48.723
				C478.352,640.65,509.424,643.868,509.424,643.868z"/>
			
				<linearGradient id="SVGID_00000012461321202143446930000001357068030097714593_" gradientUnits="userSpaceOnUse" x1="-4253.3623" y1="849.5657" x2="-4373.9941" y2="992.9047" gradientTransform="matrix(-0.9602 0.2794 0.2794 0.9602 -4004.8018 929.3496)">
				<stop  offset="0" style="stop-color:#09005D"/>
				<stop  offset="1" style="stop-color:#1A0F91"/>
			</linearGradient>
			<path style="fill:url(#SVGID_00000012461321202143446930000001357068030097714593_);" d="M487.439,627.984
				c0,0,21.82,5.17,24.878,15.043c3.058,9.873-30.943,19.028-40.47,19.476l-7.676,39.84c0,0-22.692-37.478-13.703-59.122
				C459.457,621.575,487.439,627.984,487.439,627.984z"/>
			
				<linearGradient id="SVGID_00000165199571292555500820000016397360139444382378_" gradientUnits="userSpaceOnUse" x1="-4309.4502" y1="1086.8414" x2="-4393.4502" y2="970.8414" gradientTransform="matrix(-0.9602 0.2794 0.2794 0.9602 -4004.8018 929.3496)">
				<stop  offset="0" style="stop-color:#FF928E"/>
				<stop  offset="1" style="stop-color:#FEB3B1"/>
			</linearGradient>
			<path style="fill:url(#SVGID_00000165199571292555500820000016397360139444382378_);" d="M475.533,696.824
				c0,0-18.488-21.411-25.841-7.452c-7.353,13.958,16.641,24.438,24.947,17.585L475.533,696.824z"/>
			
				<linearGradient id="SVGID_00000012433871962190663390000014301055818795666575_" gradientUnits="userSpaceOnUse" x1="501.6593" y1="1345.021" x2="193.6592" y2="1395.0209">
				<stop  offset="0" style="stop-color:#FF928E"/>
				<stop  offset="1" style="stop-color:#FEB3B1"/>
			</linearGradient>
			<path style="fill:url(#SVGID_00000012433871962190663390000014301055818795666575_);" d="M567.386,1173.316
				c-0.14,3.606,6.192,32.212,9.638,47.47c1.387,6.139,0.421,12.564-2.705,18.027L454.978,1439.67
				c-1.444,2.43-2.494,5.061-3.133,7.814c-2.187,9.426-6.723,32.526-4.355,53.541l6.174,12.822l-26.7-6.063l-5.809-71.703
				l7.559-4.609c6.53-3.981,11.615-9.934,14.526-17.006c10.791-26.213,37.589-92.937,44.496-125.455
				c7.85-36.956,48.889-66.973,48.889-66.973l-7.21-17.046L567.386,1173.316z"/>
			
				<linearGradient id="SVGID_00000005967272721755079430000004814591069844049832_" gradientUnits="userSpaceOnUse" x1="2560.3396" y1="1449.5427" x2="2624.4231" y2="1449.5427" gradientTransform="matrix(1 -0.0095 0.0095 1 -2176.885 51.0736)">
				<stop  offset="0" style="stop-color:#09005D"/>
				<stop  offset="1" style="stop-color:#1A0F91"/>
			</linearGradient>
			<path style="fill:url(#SVGID_00000005967272721755079430000004814591069844049832_);" d="M397.29,1483.111
				c0,0,14.419-22.859,16.115-31.758c1.696-8.898,6.419-24.612,15.308-19.881c0,0,4.189,43.225,2.745,60.115
				s19.093,16.347,19.093,16.347s5.66,0.796,9.805,4.94c2.862,2.862,0.816,7.826-3.223,8.086c-6.72,0.433-17.396,0.547-28.605-1.619
				c-3.918-0.757-6.822-4.09-7.059-8.073l-2.959-49.749l-18.188,22.966L397.29,1483.111z"/>
			
				<linearGradient id="SVGID_00000075851139188308573180000011711666731839808927_" gradientUnits="userSpaceOnUse" x1="732.1387" y1="1158.3429" x2="554.1389" y2="1306.3428">
				<stop  offset="0" style="stop-color:#FF928E"/>
				<stop  offset="1" style="stop-color:#FEB3B1"/>
			</linearGradient>
			<path style="fill:url(#SVGID_00000075851139188308573180000011711666731839808927_);" d="M496.093,1205.311
				c0,0-4.209,179.665-4.779,205.182c-0.57,25.517,4.029,82.065,29.609,98.968l-11.131,8.241c0,0-13.91-11.823-27.5-34.577
				c-15.266-25.562-19.883-30.232-19.883-30.232l5.066-10.374c2.218-4.542,2.87-9.68,1.848-14.63
				c-5.52-26.754-23.961-115.743-28.991-134.907c-5.938-22.622-6.361-52.831,14.298-78.119
				C475.288,1189.575,496.093,1205.311,496.093,1205.311z"/>
			
				<linearGradient id="SVGID_00000181057790425348309280000004411173781854961305_" gradientUnits="userSpaceOnUse" x1="2619.7534" y1="1461.1167" x2="2696.1472" y2="1461.1167" gradientTransform="matrix(1 -0.0095 0.0095 1 -2176.885 51.0736)">
				<stop  offset="0" style="stop-color:#09005D"/>
				<stop  offset="1" style="stop-color:#1A0F91"/>
			</linearGradient>
			<path style="fill:url(#SVGID_00000181057790425348309280000004411173781854961305_);" d="M472.472,1525.798
				c-0.793,0.008-1.468-0.561-1.58-1.346c-0.852-5.99-4.395-30.003-7.295-36.221c-3.322-7.121-14.173-37.094,0.006-39.638
				c0,0,35.249,51.499,42.015,58.442c6.766,6.943,15.306,2.426,15.306,2.426s6.593,1.948,11.565,8.301
				c2.366,3.024,0.162,7.463-3.678,7.5l-23.742,0.226c-6.895,0.066-13.097-4.123-15.66-10.524
				c-4.179-10.438-11.358-25.749-19.725-32.542l4.348,41.63C474.128,1524.979,473.405,1525.789,472.472,1525.798L472.472,1525.798z"
				/>
			
				<linearGradient id="SVGID_00000093881662488821349820000002183174195897657016_" gradientUnits="userSpaceOnUse" x1="348.817" y1="1373.2557" x2="112.3299" y2="1794.9916">
				<stop  offset="0" style="stop-color:#4042E2"/>
				<stop  offset="1" style="stop-color:#4F52FF"/>
			</linearGradient>
			<path style="fill:url(#SVGID_00000093881662488821349820000002183174195897657016_);" d="M525.582,987.154
				c0,0-5.35,17.053,2.869,45.141l50.988,178.052c0.801,2.798-0.709,5.726-3.448,6.709c-15.251,5.474-65.388,20.945-133.829,16.227
				c-3.446-0.238-6.335-2.678-7.085-6.05c-4.509-20.299-19.896-89.555-23.064-103.785c-12.071-54.223-25.55-112.698,33.745-148.056
				C473.085,987.097,498.573,993.996,525.582,987.154z"/>
			
				<linearGradient id="SVGID_00000016764828876012549070000011809892340198029222_" gradientUnits="userSpaceOnUse" x1="2621.8169" y1="715.5014" x2="2985.5054" y2="299.4954" gradientTransform="matrix(0.9922 -0.1247 0.1247 0.9922 -2319.1553 630.3192)">
				<stop  offset="0" style="stop-color:#FF928E"/>
				<stop  offset="1" style="stop-color:#FEB3B1"/>
			</linearGradient>
			<path style="fill:url(#SVGID_00000016764828876012549070000011809892340198029222_);" d="M431.2,808.326
				c0,0-58.013,48.211-72.41,114.091c-14.397,65.879,84.771,72.881,84.771,72.881s13.463-15.033,29.445-9.672
				c15.983,5.361,1.238-26.237-17.463-26.154c-18.7,0.083-10.038,14.87-36.491,2.887c-25.77-11.673-41.698-47.774,24.052-102.497
				c3.811-3.172,6.852-7.216,8.683-11.825C464.562,815.884,454.431,794.807,431.2,808.326z"/>
		</g>
		<g>
			
				<linearGradient id="SVGID_00000170273888426865769440000001114020210010979743_" gradientUnits="userSpaceOnUse" x1="-2873.5386" y1="-991.4731" x2="-2381.5383" y2="-903.473" gradientTransform="matrix(-1 0 0 1 7425.5796 0)">
				<stop  offset="0" style="stop-color:#FE7062"/>
				<stop  offset="1" style="stop-color:#FF928E"/>
			</linearGradient>
			<path style="fill:url(#SVGID_00000170273888426865769440000001114020210010979743_);" d="M750.364,698.6
				c91.733,52.175,168.313,48.921,254.909,3.412c5.604-2.945,9.01-8.856,8.708-15.179l-0.174-3.664
				c-0.533-11.197-11.98-18.507-22.361-14.277c-75.194,30.642-131.745,47.446-225.903,0.984c-10.364-5.114-22.6,1.968-23.374,13.499
				l0,0C741.751,689.601,744.94,695.514,750.364,698.6z"/>
			
				<linearGradient id="SVGID_00000042723926307942345740000012507442456631064991_" gradientUnits="userSpaceOnUse" x1="-2871.0425" y1="-1005.4105" x2="-2379.0422" y2="-917.4104" gradientTransform="matrix(-1 0 0 1 7425.5796 0)">
				<stop  offset="0" style="stop-color:#FE7062"/>
				<stop  offset="1" style="stop-color:#FF928E"/>
			</linearGradient>
			<path style="fill:url(#SVGID_00000042723926307942345740000012507442456631064991_);" d="M767.746,740.882l-50.641-71.769
				c-1.542-2.186-0.194-5.227,2.461-5.552l83.88-10.263c3.121-0.382,5.493,2.746,4.284,5.648
				c-19.162,26.582-29.952,53.7-33.848,81.259C772.817,742.766,769.346,743.149,767.746,740.882z"/>
		</g>
		<g>
			
				<linearGradient id="SVGID_00000178912525780568831530000000732094434429293706_" gradientUnits="userSpaceOnUse" x1="6530.9023" y1="-189.9542" x2="6554.5532" y2="105.6847" gradientTransform="matrix(-1 0 0 1 7425.5796 0)">
				<stop  offset="0" style="stop-color:#FE7062"/>
				<stop  offset="1" style="stop-color:#FF928E"/>
			</linearGradient>
			<path style="fill:url(#SVGID_00000178912525780568831530000000732094434429293706_);" d="M995.529,242.178
				c-95.409-58.936-176.858-58.426-270.569-13.429c-6.064,2.912-9.908,9.058-9.832,15.785l0.044,3.897
				c0.136,11.911,12.01,20.114,23.197,16.021c81.031-29.648,141.732-45.317,239.935,7.645c10.809,5.83,24.076-1.221,25.341-13.436
				l0,0C1004.329,252.066,1001.17,245.663,995.529,242.178z"/>
			
				<linearGradient id="SVGID_00000063596481249855127490000004141136807857458604_" gradientUnits="userSpaceOnUse" x1="6407.2441" y1="-180.062" x2="6430.895" y2="115.5773" gradientTransform="matrix(-1 0 0 1 7425.5796 0)">
				<stop  offset="0" style="stop-color:#FE7062"/>
				<stop  offset="1" style="stop-color:#FF928E"/>
			</linearGradient>
			<path style="fill:url(#SVGID_00000063596481249855127490000004141136807857458604_);" d="M978.696,196.608l51.017,78.163
				c1.554,2.381,0.005,5.558-2.827,5.801l-89.471,7.672c-3.329,0.285-5.728-3.127-4.332-6.163
				c21.371-27.492,33.873-55.874,39.07-84.99C973.384,194.412,977.084,194.139,978.696,196.608z"/>
		</g>
		<g>
			<g>
				<g>
					<g>
						
							<rect x="670.184" y="388.762" transform="matrix(0.1449 -0.9894 0.9894 0.1449 247.1446 1202.5619)" style="fill:#7D97F4;" width="298.26" height="139.066"/>
						<path style="opacity:0.5;fill:#FFFFFF;" d="M798.74,321.206l78.733,11.529c-0.928,6.337,4.087,12.511,11.104,13.538
							c0.223,0.033,0.757,0.102,0.759,0.091l-34.881,238.204c0.002-0.011-0.53-0.1-0.753-0.133
							c-7.017-1.028-13.509,3.271-14.453,9.714c-0.014,0.095-0.075,0.206-0.075,0.206l-76.96-11.27
							c1.591-10.863-5.471-12.933-12.488-13.961c-0.223-0.033-0.279,0.056-0.281,0.067l34.881-238.205
							c-0.002,0.011,0.04,0.026,0.263,0.059C791.606,332.074,797.812,327.543,798.74,321.206z"/>
						<g>
							
								<linearGradient id="SVGID_00000076590683136158048150000017335074180719869374_" gradientUnits="userSpaceOnUse" x1="3314.5247" y1="2796.9048" x2="3284.5425" y2="3182.6777" gradientTransform="matrix(0.1449 -0.9895 0.9895 0.1449 -2459.0508 3325.7)">
								<stop  offset="0" style="stop-color:#50E7B7"/>
								<stop  offset="0.9964" style="stop-color:#323992"/>
							</linearGradient>
							
								<circle style="fill:url(#SVGID_00000076590683136158048150000017335074180719869374_);" cx="818.962" cy="458.097" r="43.75"/>
							<g>
								<path style="fill:#FFFFFF;" d="M847.522,466.749l-4.577-0.67c-0.89,4.744-2.707,9.299-4.665,12.436
									c-0.699,1.12-2.132,1.534-3.342,1.005l-4.093-1.787c-1.502-0.656-2.062-2.475-1.216-3.878
									c1.881-3.121,3.585-7.065,4.233-11.493c0.673-4.596-0.383-8.252-3.577-8.72c-2.882-0.422-4.983,1.975-7.632,8.112
									c-3.827,8.749-8.759,14.711-16.782,13.536c-7.245-1.061-12-7.168-12.134-16.577l-4.578-0.67
									c-1.473-0.216-2.492-1.585-2.276-3.058l0.394-2.689c0.216-1.473,1.585-2.492,3.057-2.276l4.11,0.602
									c0.823-4.39,2.049-7.493,3.319-9.913c0.65-1.24,2.163-1.747,3.447-1.189l3.786,1.647c1.46,0.635,2.055,2.382,1.282,3.774
									c-1.232,2.219-2.643,5.403-3.275,9.719c-0.798,5.453,1.232,7.341,3.258,7.638c2.493,0.365,4.685-2.656,7.905-9.425
									c4.521-9.682,9.343-13.272,16.9-12.166c6.933,1.015,12.412,7.069,12.51,17.268l5.123,0.75
									c1.473,0.216,2.492,1.585,2.277,3.058l-0.394,2.69C850.364,465.946,848.995,466.965,847.522,466.749z"/>
							</g>
						</g>
					</g>
					
						<linearGradient id="SVGID_00000165210879261815551390000007027807797116175235_" gradientUnits="userSpaceOnUse" x1="737.955" y1="554.7931" x2="765.1136" y2="554.7931">
						<stop  offset="0" style="stop-color:#DAE3FE"/>
						<stop  offset="1" style="stop-color:#E9EFFD"/>
					</linearGradient>
					<path style="fill:url(#SVGID_00000165210879261815551390000007027807797116175235_);" d="M764.435,593.8
						c-0.033,0-0.066-0.002-0.1-0.008l-25.8-3.779c-0.371-0.054-0.628-0.399-0.573-0.77l10.671-72.873
						c0.054-0.371,0.393-0.643,0.771-0.574c0.371,0.054,0.628,0.399,0.573,0.77l-10.573,72.201l25.128,3.681
						c0.371,0.054,0.628,0.399,0.573,0.77C765.057,593.556,764.767,593.8,764.435,593.8z"/>
					<path style="fill:#FFFFFF;" d="M890.229,400.934c-0.033,0-0.066-0.002-0.1-0.008c-0.371-0.054-0.628-0.399-0.574-0.77
						l10.44-71.297l-26.938-3.944c-0.371-0.054-0.628-0.399-0.574-0.77c0.054-0.371,0.398-0.64,0.771-0.573l27.611,4.042
						c0.178,0.026,0.339,0.121,0.446,0.266c0.108,0.145,0.154,0.326,0.128,0.504l-10.539,71.968
						C890.851,400.69,890.561,400.934,890.229,400.934z"/>
				</g>
				<g>
					<g>
						
							<rect x="661.232" y="376.823" transform="matrix(0.1449 -0.9894 0.9894 0.1449 250.851 1183.8859)" style="fill:#91B3FA;" width="298.26" height="139.981"/>
						<path style="opacity:0.5;fill:#FFFFFF;" d="M789.609,309.698l78.732,11.529c-0.928,6.337,4.408,12.52,11.426,13.547
							c0.223,0.033,0.173-0.022,1.08,0.099l-34.881,238.205c-0.904-0.144-0.846-0.147-1.069-0.179
							c-7.017-1.028-13.673,3.285-14.616,9.728c-0.014,0.095-0.238,0.22-0.238,0.22l-76.96-11.27
							c1.591-10.863-5.602-12.991-12.619-14.018c-0.223-0.033-0.41-0.002-0.412,0.01l34.881-238.204
							c-0.002,0.011,0.171,0.084,0.394,0.116C782.343,320.508,788.681,316.034,789.609,309.698z"/>
						<g>
							
								<linearGradient id="SVGID_00000138563572720178427710000004753753923785130395_" gradientUnits="userSpaceOnUse" x1="3324.6636" y1="2786.2026" x2="3294.6814" y2="3171.9761" gradientTransform="matrix(0.1449 -0.9895 0.9895 0.1449 -2459.0508 3325.7)">
								<stop  offset="0" style="stop-color:#50E7B7"/>
								<stop  offset="0.9964" style="stop-color:#323992"/>
							</linearGradient>
							
								<circle style="fill:url(#SVGID_00000138563572720178427710000004753753923785130395_);" cx="809.841" cy="446.514" r="43.75"/>
							<g>
								<path style="fill:#FFFFFF;" d="M838.401,455.166l-4.577-0.67c-0.89,4.744-2.707,9.298-4.665,12.436
									c-0.699,1.12-2.132,1.534-3.342,1.005l-4.093-1.787c-1.502-0.656-2.062-2.475-1.216-3.878
									c1.881-3.121,3.585-7.065,4.233-11.493c0.673-4.596-0.383-8.252-3.577-8.719c-2.882-0.422-4.984,1.975-7.633,8.112
									c-3.827,8.749-8.758,14.711-16.782,13.536c-7.245-1.061-12-7.168-12.134-16.577l-4.578-0.671
									c-1.473-0.216-2.492-1.585-2.276-3.057l0.394-2.689c0.216-1.473,1.585-2.492,3.058-2.276l4.11,0.602
									c0.823-4.39,2.049-7.493,3.319-9.913c0.65-1.24,2.163-1.747,3.447-1.189l3.787,1.647c1.46,0.635,2.055,2.382,1.282,3.774
									c-1.232,2.218-2.643,5.403-3.275,9.719c-0.799,5.453,1.232,7.341,3.258,7.638c2.493,0.365,4.685-2.656,7.905-9.425
									c4.521-9.682,9.343-13.272,16.9-12.166c6.933,1.015,12.412,7.069,12.51,17.268l5.122,0.75
									c1.473,0.216,2.492,1.585,2.276,3.058l-0.394,2.69C841.243,454.362,839.874,455.382,838.401,455.166z"/>
							</g>
						</g>
					</g>
					
						<linearGradient id="SVGID_00000098920776936136916280000002932722463206440106_" gradientUnits="userSpaceOnUse" x1="728.6827" y1="542.858" x2="756.7466" y2="542.858">
						<stop  offset="0" style="stop-color:#DAE3FE"/>
						<stop  offset="1" style="stop-color:#E9EFFD"/>
					</linearGradient>
					<path style="fill:url(#SVGID_00000098920776936136916280000002932722463206440106_);" d="M756.068,581.478
						c-0.033,0-0.066-0.002-0.1-0.008l-26.705-3.911c-0.178-0.026-0.339-0.121-0.446-0.266c-0.108-0.145-0.154-0.326-0.128-0.504
						l10.539-71.967c0.054-0.371,0.398-0.643,0.771-0.574c0.371,0.054,0.628,0.399,0.573,0.77l-10.44,71.296l26.033,3.813
						c0.371,0.054,0.628,0.399,0.573,0.77C756.69,581.234,756.4,581.478,756.068,581.478z"/>
					<path style="fill:#FFFFFF;" d="M880.825,389.386c-0.033,0-0.066-0.002-0.1-0.008c-0.371-0.054-0.628-0.399-0.574-0.77
						l10.44-71.296l-26.033-3.813c-0.371-0.054-0.628-0.399-0.573-0.77c0.054-0.371,0.397-0.643,0.771-0.574l26.705,3.911
						c0.371,0.054,0.628,0.399,0.573,0.77l-10.539,71.968C881.446,389.142,881.156,389.386,880.825,389.386z"/>
				</g>
				<g>
					<g>
						<g>
							
								<rect x="653.505" y="366.445" transform="matrix(0.4365 -0.8997 0.8997 0.4365 59.6288 968.0743)" style="fill:#7D97F4;" width="298.26" height="139.981"/>
							<path style="opacity:0.5;fill:#FFFFFF;" d="M824.314,299.503l71.592,34.732c-2.795,5.762,0.337,13.298,6.718,16.393
								c0.203,0.098,0.081,0.063,0.909,0.452l-105.083,216.6c-0.818-0.41-0.701-0.365-0.904-0.464
								c-6.381-3.096-13.967-1.037-16.809,4.822c-0.042,0.086-0.233,0.091-0.233,0.091l-69.98-33.951
								c4.792-9.878-1.515-14.044-7.896-17.139c-0.203-0.098-0.482-0.094-0.487-0.084l105.083-216.6
								c-0.005,0.01,0.229,0.1,0.431,0.198C814.036,307.651,821.518,305.265,824.314,299.503z"/>
							<g>
								<path style="fill:#7D97F4;" d="M821.389,396.812c21.739,10.547,30.813,36.719,20.266,58.459
									c-10.547,21.739-36.719,30.813-58.459,20.266c-21.739-10.547-30.812-36.72-20.266-58.459
									C773.477,395.339,799.649,386.266,821.389,396.812z"/>
								<g>
									<path style="fill:#FFFFFF;" d="M826.917,453.034l-4.162-2.019c-2.279,4.255-5.385,8.049-8.198,10.45
										c-1.004,0.857-2.495,0.819-3.49-0.049l-3.364-2.938c-1.234-1.078-1.219-2.982,0.01-4.065
										c2.735-2.409,5.549-5.656,7.502-9.682c2.028-4.179,2.123-7.983-0.782-9.392c-2.621-1.271-5.347,0.381-9.723,5.433
										c-6.287,7.188-12.787,11.385-20.082,7.846c-6.588-3.196-9.28-10.453-6.571-19.464l-4.163-2.02
										c-1.339-0.65-1.898-2.262-1.248-3.602l1.186-2.445c0.65-1.34,2.262-1.898,3.602-1.249l3.737,1.813
										c2.109-3.937,4.213-6.526,6.153-8.451c0.994-0.986,2.589-1.014,3.645-0.095l3.114,2.712
										c1.201,1.046,1.241,2.891,0.084,3.985c-1.843,1.744-4.149,4.355-6.053,8.279c-2.405,4.958-1.039,7.371,0.803,8.265
										c2.267,1.1,5.268-1.119,10.379-6.603c7.23-7.868,12.91-9.837,19.781-6.504c6.304,3.058,9.703,10.482,6.721,20.236
										l4.658,2.26c1.339,0.65,1.898,2.262,1.249,3.602l-1.186,2.446C829.869,453.125,828.256,453.684,826.917,453.034z"/>
								</g>
							</g>
						</g>
						<path style="fill:#BDD0FB;" d="M710.067,549.316c-0.1,0-0.201-0.022-0.296-0.068l-24.283-11.781
							c-0.338-0.164-0.479-0.57-0.315-0.907l32.147-66.264c0.164-0.338,0.571-0.477,0.907-0.315c0.338,0.164,0.479,0.57,0.315,0.907
							l-31.851,65.653l23.672,11.485c0.338,0.164,0.479,0.57,0.315,0.907C710.562,549.175,710.32,549.316,710.067,549.316z"/>
						<path style="fill:#BDD0FB;" d="M887.338,402.957c-0.1,0-0.201-0.022-0.296-0.068c-0.338-0.164-0.479-0.57-0.315-0.907
							l31.451-64.83l-23.672-11.484c-0.338-0.164-0.479-0.57-0.315-0.907c0.164-0.339,0.571-0.478,0.907-0.315l24.283,11.78
							c0.162,0.079,0.286,0.218,0.345,0.389c0.059,0.17,0.048,0.357-0.031,0.519l-31.748,65.441
							C887.832,402.817,887.59,402.957,887.338,402.957z"/>
					</g>
					<g>
						<path style="fill:#7D97F4;" d="M772.342,507.187c6.158,2.987,8.728,10.401,5.741,16.559
							c-2.987,6.158-10.401,8.728-16.559,5.74c-6.158-2.987-8.728-10.401-5.741-16.559C758.77,506.77,766.184,504.2,772.342,507.187
							z"/>
						<path style="fill:#7D97F4;" d="M853.727,339.433c6.158,2.987,8.728,10.401,5.741,16.559
							c-2.988,6.158-10.401,8.728-16.559,5.741c-6.158-2.987-8.728-10.401-5.741-16.559
							C840.155,339.016,847.569,336.445,853.727,339.433z"/>
					</g>
				</g>
			</g>
			<g>
				<g>
					
						<linearGradient id="SVGID_00000058577830600866759570000012378950350938250387_" gradientUnits="userSpaceOnUse" x1="1464.335" y1="442.6607" x2="1514.343" y2="384.6157" gradientTransform="matrix(0.8834 -0.4686 0.4686 0.8834 -695.1273 917.6156)">
						<stop  offset="0" style="stop-color:#E1473D"/>
						<stop  offset="1" style="stop-color:#E9605A"/>
					</linearGradient>
					
						<circle style="fill:url(#SVGID_00000058577830600866759570000012378950350938250387_);" cx="823.217" cy="546.255" r="37.282"/>
					
						<linearGradient id="SVGID_00000099638613445356379940000003613158510732562612_" gradientUnits="userSpaceOnUse" x1="1542.6008" y1="342.2798" x2="1394.7256" y2="565.6772" gradientTransform="matrix(0.8834 -0.4686 0.4686 0.8834 -695.1273 917.6156)">
						<stop  offset="0" style="stop-color:#FE7062"/>
						<stop  offset="1" style="stop-color:#FF928E"/>
					</linearGradient>
					
						<circle style="fill:url(#SVGID_00000099638613445356379940000003613158510732562612_);" cx="823.217" cy="546.255" r="36.043"/>
					<path style="opacity:0.68;fill:#FFFFFF;" d="M790.51,548.022c-0.161,0.086-0.344,0.136-0.539,0.14
						c-0.666,0.013-1.216-0.515-1.229-1.18c-0.266-13.099,6.754-25.047,18.319-31.183c1.846-0.979,3.782-1.793,5.755-2.42
						c0.634-0.202,1.312,0.149,1.513,0.783c0.202,0.635-0.144,1.315-0.784,1.514c-1.835,0.584-3.637,1.342-5.355,2.253
						c-10.757,5.706-17.286,16.82-17.039,29.003C791.16,547.402,790.899,547.815,790.51,548.022z"/>
					
						<ellipse transform="matrix(0.932 -0.3625 0.3625 0.932 -142.0622 335.9363)" style="opacity:0.68;fill:#FFFFFF;" cx="824.279" cy="546.581" rx="30.506" ry="30.506"/>
					<g>
						
							<linearGradient id="SVGID_00000003089023922885622800000001241828778276304798_" gradientUnits="userSpaceOnUse" x1="669.457" y1="-71.2109" x2="594.4695" y2="54.6808" gradientTransform="matrix(0.9753 -0.221 0.221 0.9753 200.3879 726.552)">
							<stop  offset="0" style="stop-color:#FE7062"/>
							<stop  offset="1" style="stop-color:#FF928E"/>
						</linearGradient>
						<path style="fill:url(#SVGID_00000003089023922885622800000001241828778276304798_);" d="M832.262,568.018l-1.555-2.932
							c-3.121,1.499-6.527,2.381-9.173,2.58c-0.945,0.071-1.792-0.582-2-1.506l-0.704-3.126c-0.258-1.147,0.556-2.243,1.727-2.349
							c2.604-0.237,5.608-0.926,8.444-2.43c2.944-1.562,4.61-3.724,3.524-5.77c-0.979-1.846-3.258-2.044-7.932-0.971
							c-6.685,1.5-12.226,1.179-14.952-3.96c-2.462-4.641-0.948-9.983,4.437-14.054l-1.556-2.932
							c-0.5-0.943-0.141-2.114,0.802-2.615l1.723-0.914c0.943-0.501,2.114-0.141,2.615,0.802l1.397,2.633
							c2.888-1.387,5.203-1.996,7.142-2.288c0.993-0.15,1.929,0.509,2.151,1.489l0.655,2.889c0.253,1.114-0.505,2.2-1.638,2.344
							c-1.806,0.229-4.247,0.765-7.011,2.232c-3.493,1.853-3.723,3.829-3.035,5.127c0.847,1.597,3.525,1.583,8.807,0.571
							c7.519-1.495,11.642-0.23,14.21,4.61c2.356,4.441,1.18,10.18-4.677,14.565l1.741,3.281c0.5,0.944,0.141,2.114-0.802,2.615
							l-1.723,0.914C833.933,569.32,832.763,568.961,832.262,568.018z"/>
					</g>
				</g>
				<g>
					
						<linearGradient id="SVGID_00000032643895741603713200000010995679803699444659_" gradientUnits="userSpaceOnUse" x1="1532.6644" y1="442.3143" x2="1619.7197" y2="341.2679" gradientTransform="matrix(0.8834 -0.4686 0.4686 0.8834 -695.1273 917.6156)">
						<stop  offset="0" style="stop-color:#E1473D"/>
						<stop  offset="1" style="stop-color:#E9605A"/>
					</linearGradient>
					
						<circle style="fill:url(#SVGID_00000032643895741603713200000010995679803699444659_);" cx="896.248" cy="457.464" r="64.902"/>
					
						<linearGradient id="SVGID_00000123423412736423977890000016417134500516337847_" gradientUnits="userSpaceOnUse" x1="1668.9117" y1="267.5684" x2="1411.4865" y2="656.4647" gradientTransform="matrix(0.8834 -0.4686 0.4686 0.8834 -695.1273 917.6156)">
						<stop  offset="0" style="stop-color:#FE7062"/>
						<stop  offset="1" style="stop-color:#FF928E"/>
					</linearGradient>
					
						<circle style="fill:url(#SVGID_00000123423412736423977890000016417134500516337847_);" cx="896.248" cy="457.464" r="62.744"/>
					<path style="opacity:0.68;fill:#FFFFFF;" d="M838.893,459.751c-0.161,0.085-0.344,0.136-0.539,0.14
						c-0.666,0.014-1.216-0.515-1.229-1.18c-0.456-22.465,11.582-42.956,31.416-53.478c3.165-1.679,6.486-3.076,9.871-4.149
						c0.634-0.202,1.312,0.149,1.514,0.784c0.201,0.634-0.146,1.318-0.784,1.513c-3.247,1.031-6.434,2.371-9.471,3.982
						c-19.026,10.093-30.573,29.75-30.137,51.299C839.543,459.131,839.282,459.544,838.893,459.751z"/>
					
						<ellipse transform="matrix(0.8108 -0.5853 0.5853 0.8108 -98.1765 612.335)" style="opacity:0.68;fill:#FFFFFF;" cx="898.097" cy="458.031" rx="53.105" ry="53.105"/>
					<g>
						
							<linearGradient id="SVGID_00000175281485005167365920000008126704249477083533_" gradientUnits="userSpaceOnUse" x1="776.7482" y1="-166.1232" x2="646.2076" y2="53.0328" gradientTransform="matrix(0.9753 -0.221 0.221 0.9753 200.3879 726.552)">
							<stop  offset="0" style="stop-color:#FE7062"/>
							<stop  offset="1" style="stop-color:#FF928E"/>
						</linearGradient>
						<path style="fill:url(#SVGID_00000175281485005167365920000008126704249477083533_);" d="M911.994,495.349l-2.707-5.104
							c-5.434,2.609-11.362,4.146-15.968,4.492c-1.645,0.124-3.12-1.013-3.482-2.622l-1.225-5.442
							c-0.45-1.996,0.969-3.905,3.007-4.09c4.532-0.413,9.763-1.612,14.699-4.23c5.125-2.719,8.025-6.484,6.136-10.045
							c-1.705-3.214-5.672-3.558-13.808-1.69c-11.637,2.611-21.283,2.052-26.029-6.894c-4.286-8.078-1.65-17.379,7.724-24.466
							l-2.708-5.104c-0.871-1.642-0.246-3.68,1.396-4.551l2.999-1.591c1.643-0.871,3.68-0.246,4.552,1.396l2.431,4.583
							c5.028-2.415,9.058-3.474,12.432-3.983c1.729-0.261,3.358,0.886,3.744,2.591l1.14,5.029c0.44,1.939-0.88,3.829-2.853,4.08
							c-3.144,0.399-7.393,1.332-12.205,3.885c-6.08,3.225-6.481,6.666-5.283,8.924c1.474,2.779,6.136,2.755,15.331,0.994
							c13.089-2.603,20.267-0.401,24.737,8.025c4.101,7.731,2.055,17.72-8.142,25.356l3.03,5.712
							c0.871,1.643,0.246,3.68-1.396,4.552l-2.999,1.591C914.903,497.616,912.865,496.991,911.994,495.349z"/>
					</g>
				</g>
				<g>
					
						<linearGradient id="SVGID_00000101064667601532045730000008501584757371282613_" gradientUnits="userSpaceOnUse" x1="1574.8556" y1="590.2656" x2="1664.4344" y2="486.2901" gradientTransform="matrix(0.8834 -0.4686 0.4686 0.8834 -695.1273 917.6156)">
						<stop  offset="0" style="stop-color:#E1473D"/>
						<stop  offset="1" style="stop-color:#E9605A"/>
					</linearGradient>
					
						<circle style="fill:url(#SVGID_00000101064667601532045730000008501584757371282613_);" cx="1003.724" cy="564.547" r="66.784"/>
					
						<linearGradient id="SVGID_00000045601386033868825490000009025063523329162882_" gradientUnits="userSpaceOnUse" x1="1715.0524" y1="410.4542" x2="1450.165" y2="810.6234" gradientTransform="matrix(0.8834 -0.4686 0.4686 0.8834 -695.1273 917.6156)">
						<stop  offset="0" style="stop-color:#FE7062"/>
						<stop  offset="1" style="stop-color:#FF928E"/>
					</linearGradient>
					
						<circle style="fill:url(#SVGID_00000045601386033868825490000009025063523329162882_);" cx="1003.724" cy="564.547" r="64.563"/>
					<path style="opacity:0.68;fill:#FFFFFF;" d="M944.689,566.87c-0.161,0.085-0.344,0.136-0.539,0.14
						c-0.666,0.013-1.216-0.515-1.229-1.18c-0.469-23.102,11.911-44.175,32.308-54.996c3.255-1.727,6.67-3.163,10.152-4.267
						c0.634-0.202,1.312,0.149,1.514,0.784c0.201,0.634-0.144,1.313-0.784,1.513c-3.344,1.062-6.625,2.442-9.752,4.101
						c-19.589,10.392-31.479,30.63-31.029,52.817C945.34,566.25,945.079,566.663,944.689,566.87z"/>
					
						<ellipse transform="matrix(0.9649 -0.2625 0.2625 0.9649 -113.0836 283.8033)" style="opacity:0.68;fill:#FFFFFF;" cx="1005.626" cy="565.131" rx="54.645" ry="54.645"/>
					<g>
						
							<linearGradient id="SVGID_00000131326646195833264480000012773886231997980818_" gradientUnits="userSpaceOnUse" x1="859.0198" y1="-39.6053" x2="724.6956" y2="185.9029" gradientTransform="matrix(0.9753 -0.221 0.221 0.9753 200.3879 726.552)">
							<stop  offset="0" style="stop-color:#FE7062"/>
							<stop  offset="1" style="stop-color:#FF928E"/>
						</linearGradient>
						<path style="fill:url(#SVGID_00000131326646195833264480000012773886231997980818_);" d="M1019.926,603.53l-2.786-5.252
							c-5.591,2.685-11.692,4.266-16.431,4.622c-1.692,0.127-3.21-1.043-3.583-2.698l-1.261-5.6
							c-0.463-2.054,0.997-4.018,3.094-4.209c4.664-0.425,10.046-1.658,15.126-4.353c5.273-2.797,8.258-6.671,6.313-10.336
							c-1.754-3.307-5.836-3.661-14.208-1.739c-11.974,2.687-21.9,2.112-26.784-7.094c-4.41-8.313-1.698-17.882,7.948-25.175
							l-2.786-5.252c-0.896-1.69-0.253-3.787,1.437-4.683l3.086-1.637c1.69-0.897,3.787-0.253,4.683,1.437l2.502,4.716
							c5.174-2.485,9.321-3.575,12.793-4.099c1.779-0.269,3.455,0.912,3.853,2.667l1.173,5.175c0.452,1.996-0.905,3.94-2.935,4.198
							c-3.235,0.41-7.607,1.37-12.559,3.997c-6.257,3.319-6.669,6.859-5.436,9.183c1.517,2.86,6.314,2.835,15.775,1.023
							c13.468-2.678,20.855-0.412,25.454,8.258c4.22,7.955,2.114,18.234-8.377,26.091l3.118,5.877
							c0.897,1.69,0.253,3.787-1.437,4.683l-3.086,1.637C1022.92,605.864,1020.823,605.22,1019.926,603.53z"/>
					</g>
				</g>
				<g>
					
						<linearGradient id="SVGID_00000084502821474131948350000015183250130254605203_" gradientUnits="userSpaceOnUse" x1="1684.957" y1="470.9346" x2="1750.5908" y2="394.7526" gradientTransform="matrix(0.8834 -0.4686 0.4686 0.8834 -695.1273 917.6156)">
						<stop  offset="0" style="stop-color:#E1473D"/>
						<stop  offset="1" style="stop-color:#E9605A"/>
					</linearGradient>
					
						<circle style="fill:url(#SVGID_00000084502821474131948350000015183250130254605203_);" cx="1036.776" cy="444.033" r="48.932"/>
					
						<linearGradient id="SVGID_00000127017439300386180110000016284491999218741171_" gradientUnits="userSpaceOnUse" x1="1787.6781" y1="339.1882" x2="1593.5972" y2="632.3892" gradientTransform="matrix(0.8834 -0.4686 0.4686 0.8834 -695.1273 917.6156)">
						<stop  offset="0" style="stop-color:#FE7062"/>
						<stop  offset="1" style="stop-color:#FF928E"/>
					</linearGradient>
					
						<circle style="fill:url(#SVGID_00000127017439300386180110000016284491999218741171_);" cx="1036.776" cy="444.033" r="47.305"/>
					<path style="opacity:0.68;fill:#FFFFFF;" d="M993.672,446.019c-0.161,0.085-0.344,0.136-0.539,0.14
						c-0.666,0.013-1.216-0.515-1.229-1.18c-0.346-17.049,8.791-32.601,23.843-40.586c2.399-1.273,4.919-2.333,7.492-3.15
						c0.634-0.202,1.312,0.149,1.513,0.783c0.201,0.634-0.14,1.318-0.784,1.514c-2.434,0.774-4.82,1.777-7.092,2.983
						c-14.244,7.556-22.89,22.274-22.563,38.407C994.323,445.399,994.061,445.812,993.672,446.019z"/>
					
						<ellipse transform="matrix(0.0153 -0.9999 0.9999 0.0153 577.868 1475.7035)" style="opacity:0.68;fill:#FFFFFF;" cx="1038.169" cy="444.46" rx="40.038" ry="40.038"/>
					<g>
						
							<linearGradient id="SVGID_00000020375043947295912640000003879608712071209904_" gradientUnits="userSpaceOnUse" x1="907.2565" y1="-134.0249" x2="808.8381" y2="31.2032" gradientTransform="matrix(0.9753 -0.221 0.221 0.9753 200.3879 726.552)">
							<stop  offset="0" style="stop-color:#FE7062"/>
							<stop  offset="1" style="stop-color:#FF928E"/>
						</linearGradient>
						<path style="fill:url(#SVGID_00000020375043947295912640000003879608712071209904_);" d="M1048.647,472.595l-2.041-3.848
							c-4.097,1.967-8.567,3.126-12.039,3.387c-1.24,0.093-2.352-0.764-2.625-1.977l-0.924-4.103
							c-0.339-1.505,0.73-2.944,2.267-3.084c3.417-0.311,7.361-1.215,11.082-3.189c3.864-2.05,6.05-4.888,4.626-7.573
							c-1.285-2.423-4.276-2.682-10.41-1.274c-8.773,1.969-16.046,1.547-19.624-5.198c-3.231-6.091-1.244-13.102,5.823-18.445
							l-2.042-3.849c-0.657-1.238-0.186-2.775,1.052-3.432l2.261-1.199c1.238-0.657,2.775-0.186,3.432,1.053l1.833,3.455
							c3.791-1.82,6.829-2.619,9.373-3.003c1.303-0.197,2.532,0.668,2.823,1.954l0.86,3.792c0.331,1.462-0.663,2.887-2.151,3.076
							c-2.37,0.301-5.574,1.004-9.202,2.929c-4.584,2.432-4.886,5.025-3.983,6.728c1.112,2.096,4.626,2.077,11.558,0.75
							c9.868-1.962,15.28-0.302,18.65,6.05c3.092,5.828,1.549,13.36-6.138,19.117l2.284,4.306c0.657,1.238,0.186,2.775-1.053,3.431
							l-2.261,1.199C1050.84,474.305,1049.304,473.833,1048.647,472.595z"/>
					</g>
				</g>
			</g>
		</g>
		<g>
			<g>
				<g>
					<path style="fill:#BDD0FB;" d="M2181.069,949.638c-6.725-14.01-11.535-28.677-12.657-44.646
						c-2.827-40.236,20.563-77.29,37.746-111.933c15.793-31.84,27.531-79.284-25.758-75.062
						c-42.455,3.364-92.366,45.673-98.061,89.792c-6.739,52.216,18.681,118.062-11.457,165.494
						c-42.162,66.354-72.575,51.148-72.575,163.121c0,47.845,26.502,74.237,56.857,88.773
						c47.911,22.944,105.041,13.673,143.215-23.27c33.724-32.637,53.776-79.555,46.994-126.658
						C2238.523,1027.674,2201.209,991.597,2181.069,949.638z"/>
					<path style="fill:#7D97F4;" d="M2145.448,1310.613c-1.098,0-2.098-0.743-2.377-1.857
						c-26.429-105.493-40.815-201.129-42.759-284.254c-1.558-66.602,4.823-125.389,18.966-174.728
						c24.203-84.437,62.29-111.642,63.899-112.759c1.115-0.771,2.641-0.495,3.413,0.617c0.771,1.111,0.497,2.638-0.614,3.411l0,0
						c-0.096,0.067-9.696,6.868-22.095,23.834c-11.457,15.676-27.709,43.477-40.074,86.9
						c-13.917,48.872-20.166,107.142-18.578,173.19c1.989,82.624,16.322,177.703,42.6,282.597c0.329,1.314-0.469,2.647-1.783,2.976
						C2145.845,1310.589,2145.645,1310.613,2145.448,1310.613z"/>
				</g>
				<path style="fill:#BDD0FB;" d="M2223.373,831.595c-2.053-0.557-4.308-0.73-6.709-0.454
					c-13.281,1.527-18.735,15.533-22.637,26.483c-3.342,9.378-7.279,20.76-5.306,30.919c2.134,10.984,13.798,19.944,22.262,8.792
					c9.621-12.676,24.058-32.139,24.145-48.937C2235.171,840.048,2230.483,833.524,2223.373,831.595z"/>
			</g>
			<g>
				<path style="fill:#91B3FA;" d="M2354.513,1089.682c5.432-35.787-7.574-76.873-14.066-114.718
					c-3.432-20.01-5.02-39.867-1.806-60.026c3.195-20.043,12.613-41.72,3.929-61.689c-17.497-40.23-59.091-21.922-82.917,8.364
					c-27.648,35.145-35.206,92.574-45.708,136.797c-6.331,26.659-15.867,54.004-19.207,81.171
					c-5.532,45.004,4.643,76.249,26.172,97.349c20.649,20.239,52.097,24.435,77.357,10.368
					C2321.086,1174.589,2345.75,1147.415,2354.513,1089.682z"/>
				<path style="fill:#7D97F4;" d="M2259.356,1256.806c-1.176,0-2.214-0.848-2.415-2.045c-0.092-0.544-9.149-55.201-9.386-130.602
					c-0.219-69.627,7.249-171.734,44.068-262.776c0.509-1.256,1.936-1.863,3.194-1.354c1.256,0.508,1.862,1.938,1.354,3.194
					c-36.509,90.273-43.922,191.664-43.711,260.825c0.229,75.021,9.228,129.359,9.318,129.898c0.225,1.336-0.676,2.601-2.011,2.826
					C2259.628,1256.795,2259.492,1256.806,2259.356,1256.806z"/>
			</g>
		</g>
		<g>
			<g>
				
					<linearGradient id="SVGID_00000044886029514464606840000016438532429041993637_" gradientUnits="userSpaceOnUse" x1="710.1526" y1="1501.3529" x2="1214.2034" y2="1171.3191">
					<stop  offset="0" style="stop-color:#FE7062"/>
					<stop  offset="1" style="stop-color:#FF928E"/>
				</linearGradient>
				<path style="fill:url(#SVGID_00000044886029514464606840000016438532429041993637_);" d="M719.617,1438.509v-233.957
					c0-30.739,24.703-55.75,55.44-56.085c92.248-1.004,282.506-1.054,438.178,12.064c21.243,1.79,37.767,19.201,38.537,40.505
					l14.55,226.19c1.081,29.918-22.573,54.913-52.505,55.482l-440.618,8.373C743.772,1491.64,719.617,1467.94,719.617,1438.509z"/>
				<path style="fill:#FFFFFF;" d="M773.046,1229.865c-0.392,19.907,0.199,51.493,0.683,71.901
					c0.252,10.617,9.573,18.708,20.121,17.471l75.917-8.898c10.114-1.185,17.239-10.506,15.729-20.577l-9.319-62.164
					c-1.323-8.825-8.904-15.354-17.828-15.354h-67.28C781.267,1212.243,773.239,1220.063,773.046,1229.865z"/>
				<path style="opacity:0.37;fill:#FFFFFF;" d="M971.443,1347.675l63.329,6.832c8.861,0.957,16.423-6.352,15.77-15.241
					l-13.845-188.384c-26.547-0.842-52.733-1.456-78-1.887v184.485C958.698,1340.772,964.193,1346.893,971.443,1347.675z"/>
				<path style="fill:#FFFFFF;" d="M997.4,1315.024c0.195,3.389,3.003,6.001,6.353,6.001c0.125,0,0.249-0.004,0.374-0.012
					c3.513-0.203,6.196-3.214,5.988-6.727l-9.549-164.415c-4.282-0.106-8.529-0.201-12.776-0.296L997.4,1315.024z"/>
				<g>
					<path style="fill:#91B3FA;" d="M808.155,1289.208c-1.112,0-2.049-0.863-2.119-1.991l-3.284-51.786
						c-0.075-1.17,0.813-2.177,1.987-2.252c1.232-0.095,2.177,0.817,2.252,1.987l3.284,51.786c0.075,1.169-0.813,2.177-1.987,2.252
						C808.242,1289.208,808.197,1289.208,808.155,1289.208z"/>
					<path style="fill:#91B3FA;" d="M814.915,1289.208c-1.14,0-2.086-0.904-2.124-2.053l-1.721-52.777
						c-0.037-1.174,0.883-2.157,2.053-2.194c1.353-0.066,2.153,0.884,2.194,2.053l1.721,52.777c0.037,1.174-0.884,2.156-2.053,2.194
						C814.986,1289.208,814.937,1289.208,814.915,1289.208z"/>
					<path style="fill:#91B3FA;" d="M823.981,1289.208c-1.128,0-2.065-0.883-2.119-2.024c-0.415-8.676-2.48-52.002-2.48-52.877
						c0-1.174,0.95-2.123,2.124-2.123c1.165,0,2.115,0.941,2.123,2.103c0.025,1.153,1.63,34.969,2.472,52.699
						c0.058,1.169-0.846,2.164-2.02,2.219C824.048,1289.208,824.014,1289.208,823.981,1289.208z M823.629,1234.307h0.042H823.629z"
						/>
					<path style="fill:#91B3FA;" d="M838.136,1291.331c-2.277,0-4.16-1.804-4.239-4.097c-1.796-51.135-1.481-52.288-1.273-53.052
						c0.614-2.268,2.969-3.599,5.213-2.982c2.078,0.568,3.376,2.584,3.094,4.661c-0.137,3.073,0.813,32.825,1.452,51.073
						c0.083,2.343-1.75,4.313-4.093,4.392C838.239,1291.331,838.185,1291.331,838.136,1291.331z"/>
					<path style="fill:#91B3FA;" d="M847.339,1289.208c-1.174,0-2.123-0.95-2.123-2.124v-51.786c0-1.174,0.949-2.124,2.123-2.124
						c1.174,0,2.123,0.95,2.123,2.124v51.786C849.461,1288.259,848.512,1289.208,847.339,1289.208z"/>
					<path style="fill:#91B3FA;" d="M854.77,1289.208c-1.153,0-2.099-0.921-2.123-2.074c-0.407-17.994-1.356-47.386-2.207-50.919
						c-0.373-0.668-0.369-1.514,0.079-2.202c0.643-0.987,1.958-1.252,2.94-0.61c1.157,0.758,2.256,1.476,3.434,53.632
						c0.025,1.174-0.904,2.144-2.074,2.173H854.77z"/>
					<path style="fill:#91B3FA;" d="M796.73,1293.923c-2.244,0-4.118-1.758-4.239-4.027l-2.832-54.378
						c-0.12-2.343,1.68-4.338,4.023-4.462c2.223-0.157,4.338,1.68,4.462,4.023l2.832,54.378c0.121,2.343-1.679,4.338-4.022,4.462
						C796.879,1293.923,796.805,1293.923,796.73,1293.923z"/>
				</g>
			</g>
			<g>
				
					<linearGradient id="SVGID_00000077290308042743006560000003452562173503514016_" gradientUnits="userSpaceOnUse" x1="794.2349" y1="1153.9069" x2="1124.2681" y2="943.8857">
					<stop  offset="0" style="stop-color:#FE7062"/>
					<stop  offset="1" style="stop-color:#FF928E"/>
				</linearGradient>
				<path style="fill:url(#SVGID_00000077290308042743006560000003452562173503514016_);" d="M793.575,1118.084V953.782
					c0-21.587,17.348-39.152,38.934-39.387c64.784-0.706,198.397-0.741,307.722,8.472c14.918,1.257,26.522,13.485,27.063,28.446
					l10.218,158.847c0.76,21.011-15.852,38.564-36.873,38.964l-309.435,5.88C810.539,1155.397,793.575,1138.752,793.575,1118.084z"
					/>
				<path style="fill:#FFFFFF;" d="M831.098,971.559c-0.276,13.98,0.14,36.162,0.479,50.494c0.177,7.456,6.723,13.138,14.13,12.27
					l53.315-6.249c7.102-0.832,12.106-7.378,11.046-14.45l-6.544-43.657c-0.929-6.198-6.253-10.783-12.52-10.783h-47.249
					C836.87,959.183,831.233,964.675,831.098,971.559z"/>
				<path style="opacity:0.37;fill:#FFFFFF;" d="M970.427,1054.294l44.475,4.798c6.223,0.672,11.533-4.461,11.075-10.703
					l-9.723-132.298c-18.644-0.591-37.033-1.022-54.777-1.325v129.559C961.476,1049.446,965.335,1053.745,970.427,1054.294z"/>
				<path style="fill:#FFFFFF;" d="M988.656,1031.364c0.137,2.38,2.109,4.215,4.462,4.215c0.088,0,0.175-0.003,0.263-0.009
					c2.467-0.143,4.351-2.257,4.206-4.724l-6.706-115.465c-3.007-0.074-5.989-0.141-8.972-0.207L988.656,1031.364z"/>
				<g>
					<path style="fill:#91B3FA;" d="M855.754,1013.234c-0.781,0-1.439-0.606-1.489-1.398l-2.306-36.368
						c-0.052-0.821,0.571-1.529,1.395-1.582c0.865-0.067,1.529,0.573,1.582,1.395l2.307,36.368c0.052,0.821-0.571,1.529-1.395,1.581
						C855.815,1013.234,855.783,1013.234,855.754,1013.234z"/>
					<path style="fill:#91B3FA;" d="M860.501,1013.234c-0.801,0-1.465-0.635-1.491-1.441l-1.209-37.064
						c-0.026-0.825,0.62-1.514,1.442-1.541c0.95-0.046,1.512,0.621,1.541,1.442l1.209,37.064c0.026,0.824-0.62,1.514-1.442,1.541
						C860.551,1013.234,860.516,1013.234,860.501,1013.234z"/>
					<path style="fill:#91B3FA;" d="M866.868,1013.234c-0.792,0-1.451-0.62-1.488-1.421c-0.291-6.093-1.742-36.52-1.742-37.134
						c0-0.824,0.667-1.491,1.491-1.491c0.818,0,1.485,0.661,1.491,1.477c0.017,0.81,1.144,24.558,1.735,37.009
						c0.041,0.821-0.594,1.52-1.418,1.558C866.915,1013.234,866.891,1013.234,866.868,1013.234z M866.621,974.678h0.029H866.621z"/>
					<path style="fill:#91B3FA;" d="M876.808,1014.725c-1.599,0-2.922-1.267-2.977-2.877c-1.261-35.911-1.04-36.721-0.894-37.256
						c0.431-1.593,2.085-2.528,3.661-2.094c1.459,0.399,2.371,1.815,2.172,3.273c-0.096,2.158,0.571,23.052,1.02,35.867
						c0.058,1.645-1.229,3.029-2.875,3.084C876.881,1014.725,876.843,1014.725,876.808,1014.725z"/>
					<path style="fill:#91B3FA;" d="M883.271,1013.234c-0.824,0-1.491-0.667-1.491-1.492v-36.368c0-0.824,0.667-1.491,1.491-1.491
						c0.824,0,1.491,0.667,1.491,1.491v36.368C884.762,1012.567,884.095,1013.234,883.271,1013.234z"/>
					<path style="fill:#91B3FA;" d="M888.49,1013.234c-0.81,0-1.474-0.646-1.491-1.456c-0.286-12.637-0.953-33.278-1.549-35.76
						c-0.262-0.469-0.259-1.063,0.055-1.547c0.451-0.693,1.375-0.88,2.065-0.428c0.813,0.533,1.584,1.037,2.412,37.664
						c0.017,0.824-0.635,1.506-1.456,1.526H888.49z"/>
					<path style="fill:#91B3FA;" d="M847.73,1016.545c-1.576,0-2.892-1.235-2.977-2.828l-1.989-38.189
						c-0.085-1.646,1.18-3.047,2.825-3.134c1.561-0.11,3.047,1.18,3.134,2.825l1.989,38.189c0.085,1.646-1.179,3.046-2.825,3.134
						C847.835,1016.545,847.782,1016.545,847.73,1016.545z"/>
				</g>
			</g>
		</g>
		<g>
			<g>
				
					<linearGradient id="SVGID_00000060014910533437063200000006521262910312230786_" gradientUnits="userSpaceOnUse" x1="1186.462" y1="829.3879" x2="898.2574" y2="839.7337">
					<stop  offset="0" style="stop-color:#FF928E"/>
					<stop  offset="1" style="stop-color:#FEB3B1"/>
				</linearGradient>
				<path style="fill:url(#SVGID_00000060014910533437063200000006521262910312230786_);" d="M914.506,801.779l21.838,11.752
					c26.191,15.946,49.627,24.372,70.717,27.536c65.853,9.881,108.774-31.67,140.757-56.876
					c42.226-33.278,75.086-17.088,75.086-17.088l-45.032,85.945c-67.25,63.407-136.201,49.326-179.67,28.779
					c-27.671-13.079-45.02-28.779-45.02-28.779C903.712,823.549,914.506,801.779,914.506,801.779z"/>
				
					<linearGradient id="SVGID_00000126304047676788997280000005615977620052049041_" gradientUnits="userSpaceOnUse" x1="1185.413" y1="800.1542" x2="897.2082" y2="810.5001">
					<stop  offset="0" style="stop-color:#FF928E"/>
					<stop  offset="1" style="stop-color:#FEB3B1"/>
				</linearGradient>
				<path style="fill:url(#SVGID_00000126304047676788997280000005615977620052049041_);" d="M850.172,832.553
					c1.41-4.687,4.875-8.478,9.416-10.304l44.32-17.823c0,0,0.669-5.684-9.364-9.547c-10.034-3.862-7.688-15.1-7.688-15.1
					s13.707,6.253,33.775,16.17c11.476,5.671,17.915,15.685,21.33,23.223l-11.409,15.004c-27.315,8.206-54.956,9.775-82.831,6.52
					L850.172,832.553z"/>
			</g>
			
				<linearGradient id="SVGID_00000067924958911206948740000003174395101419278210_" gradientUnits="userSpaceOnUse" x1="-5392.6948" y1="1418.3542" x2="-5372.8496" y2="1514.8756" gradientTransform="matrix(1 0 0 1 6556.8267 0)">
				<stop  offset="0" style="stop-color:#4042E2"/>
				<stop  offset="1" style="stop-color:#4F52FF"/>
			</linearGradient>
			<path style="fill:url(#SVGID_00000067924958911206948740000003174395101419278210_);" d="M1232.583,1458.941
				c0,0,3.373,19.099,5.028,38.005c0.647,7.389-5.05,13.805-12.461,14.113c-25.177,1.049-79.032,3.087-98.357,2.225
				c-2.905-0.129-4.804-3.104-3.729-5.806l0,0c0.901-2.264,2.639-4.094,4.852-5.112l88.959-40.885L1232.583,1458.941z"/>
			
				<linearGradient id="SVGID_00000108305626885833069290000001250556427708997276_" gradientUnits="userSpaceOnUse" x1="8101.855" y1="1458.8625" x2="8130.7905" y2="1458.8625" gradientTransform="matrix(-1 0 0 1 9337.2021 0)">
				<stop  offset="0" style="stop-color:#F9B776"/>
				<stop  offset="1" style="stop-color:#F47960"/>
			</linearGradient>
			<path style="fill:url(#SVGID_00000108305626885833069290000001250556427708997276_);" d="M1235.347,1447.719l-2.711,22.845
				c0,0-15.583,7.254-26.225-0.915l6.454-25.458L1235.347,1447.719z"/>
			
				<linearGradient id="SVGID_00000022554570633778672140000009150511674619037069_" gradientUnits="userSpaceOnUse" x1="3488.7043" y1="6325.377" x2="3092.7041" y2="6763.3779" gradientTransform="matrix(-1 0 0 1 9337.2021 0)">
				<stop  offset="0" style="stop-color:#09005D"/>
				<stop  offset="1" style="stop-color:#1A0F91"/>
			</linearGradient>
			<path style="fill:url(#SVGID_00000022554570633778672140000009150511674619037069_);" d="M1239.698,1003.168
				c1.171,6.185-2.1,323.994-33.286,459.547c-0.509,2.212-3.734,6.554-2.621,8.457c2.706,4.629,22.633,3.329,33.871,3.721
				c3.48,0.121,5.349-3.963,6.331-7.427c8.914-31.45,51.629-189.025,57.202-339.552c6.226-168.199,0-5.727,0-5.727l2.767-106.561
				L1239.698,1003.168z"/>
			
				<linearGradient id="SVGID_00000075137225598357159460000008374337561394276271_" gradientUnits="userSpaceOnUse" x1="-5233.605" y1="1423.3816" x2="-5234.5068" y2="1519.0012" gradientTransform="matrix(1 0 0 1 6556.8267 0)">
				<stop  offset="0" style="stop-color:#4042E2"/>
				<stop  offset="1" style="stop-color:#4F52FF"/>
			</linearGradient>
			<path style="fill:url(#SVGID_00000075137225598357159460000008374337561394276271_);" d="M1334.915,1468.905
				c0,0,5.37,9.642,10.569,35.263c0.939,4.627-2.294,9.055-6.992,9.517c-8.313,0.817-21.111,1.869-31.363,1.798
				c-4.726-0.032-8.414-4.148-7.845-8.84c1.135-9.351,4.673-24.694,15.602-36.653L1334.915,1468.905z"/>
			
				<linearGradient id="SVGID_00000070835888308400869920000011063714335601905825_" gradientUnits="userSpaceOnUse" x1="7997.5708" y1="1457.3787" x2="8022.5542" y2="1457.3787" gradientTransform="matrix(-1 0 0 1 9337.2021 0)">
				<stop  offset="0" style="stop-color:#F9B776"/>
				<stop  offset="1" style="stop-color:#F47960"/>
			</linearGradient>
			<path style="fill:url(#SVGID_00000070835888308400869920000011063714335601905825_);" d="M1339.631,1439.521l-6.333,34.547
				c0,0-6.262,4.658-18.65,1.281l3.023-37.171L1339.631,1439.521z"/>
			
				<linearGradient id="SVGID_00000155835310445273681090000010809468457179985570_" gradientUnits="userSpaceOnUse" x1="3445.5288" y1="6286.3296" x2="3049.5288" y2="6724.3301" gradientTransform="matrix(-1 0 0 1 9337.2021 0)">
				<stop  offset="0" style="stop-color:#09005D"/>
				<stop  offset="1" style="stop-color:#1A0F91"/>
			</linearGradient>
			<path style="fill:url(#SVGID_00000155835310445273681090000010809468457179985570_);" d="M1354.855,1015.563
				c25.505,160.668-3.646,409.428-14.114,455.705c-0.641,2.833-2.832,5.004-5.583,5.48c-4.673,0.809-12.365,1.468-19.949-0.83
				c-2.613-0.793-4.449-3.253-4.555-6.091c-1.404-37.413,1.123-267.092-22.642-357.862c-1.204-4.6-3.896-8.611-7.62-11.375
				l-39.109-31.874l-0.727-68.726L1354.855,1015.563z"/>
			
				<linearGradient id="SVGID_00000044876448063773635590000011791541547389486471_" gradientUnits="userSpaceOnUse" x1="1335.9498" y1="758.4734" x2="1043.2682" y2="1219.6696">
				<stop  offset="0" style="stop-color:#FE7062"/>
				<stop  offset="1" style="stop-color:#FF928E"/>
			</linearGradient>
			<path style="fill:url(#SVGID_00000044876448063773635590000011791541547389486471_);" d="M1208.717,757.804
				c67.221-1.11,141.391,17.65,141.391,17.65c16.517,96.374,9.885,203.181,6.447,238.354c-0.705,7.21,3.152,14.844-4,16
				c-35.172,5.682-90.456-0.1-107.635-5.091c-6.278-1.824-5.211-8.509-6.545-14.909c-11.533-55.318-44.514-177.327-44.514-177.327
				c-15.988,20.567-38.547,49.345-71.896,57.006c16.995-19.7-15.603-61.014-12.123-75.832
				C1139.991,779.779,1187.984,758.147,1208.717,757.804z"/>
			
				<linearGradient id="SVGID_00000161615913308322279920000004259358994610929060_" gradientUnits="userSpaceOnUse" x1="1248.9362" y1="627.2785" x2="1292.9364" y2="917.2789">
				<stop  offset="0" style="stop-color:#FF928E"/>
				<stop  offset="1" style="stop-color:#FEB3B1"/>
			</linearGradient>
			<path style="fill:url(#SVGID_00000161615913308322279920000004259358994610929060_);" d="M1276.806,703.231l21.388,61.854
				c0.355,1.025-0.067,2.159-1.015,2.684c-5.83,3.224-26.836,12.541-52.15-3.508c-2.637-1.672-4.432-4.398-4.833-7.495
				l-6.926-53.535H1276.806z"/>
			<g>
				
					<linearGradient id="SVGID_00000011739357153770041590000005713701440156288160_" gradientUnits="userSpaceOnUse" x1="2023.0211" y1="876.5652" x2="1949.0212" y2="982.565" gradientTransform="matrix(-0.746 -0.6659 -0.6659 0.746 3681.9617 -1476.3188)">
					<stop  offset="0" style="stop-color:#FF928E"/>
					<stop  offset="1" style="stop-color:#FEB3B1"/>
				</linearGradient>
				<path style="fill:url(#SVGID_00000011739357153770041590000005713701440156288160_);" d="M1230.268,645.953
					c0,0-23.487,44.211-20.477,62.071c3.011,17.859,32.119,16.577,57.537,2.072l17.762-47.739L1230.268,645.953z"/>
				
					<linearGradient id="SVGID_00000020393057870827063700000008257149706495522191_" gradientUnits="userSpaceOnUse" x1="363.4975" y1="3142.092" x2="380.5896" y2="3239.5803" gradientTransform="matrix(-0.746 -0.6659 -0.6659 0.746 3681.9617 -1476.3188)">
					<stop  offset="0" style="stop-color:#09005D"/>
					<stop  offset="1" style="stop-color:#1A0F91"/>
				</linearGradient>
				<path style="fill:url(#SVGID_00000020393057870827063700000008257149706495522191_);" d="M1266.205,686.651
					c-1.033-0.458-1.414-1.722-0.795-2.667c1.882-2.874,5.409-8.739,6.535-13.873c0,0,4.222-2.704-10.747-6.287
					c-8.15-1.951-22.6-3.565-28.95-9.425c-7.107-6.558,5.996-18.947,11.505-22.273c7.27-4.39,16.122-6.986,24.322-4.774
					c3.957,1.068,7.537,3.182,11.062,5.273c6.003,3.561,12.217,7.32,16.034,13.164c2.471,3.783,3.766,8.196,4.952,12.557
					c1.704,6.264,3.263,12.68,2.967,19.166c-0.788,17.278-21.037,32.757-37.321,34.649c-1.332,0.155-2.364-1.161-1.928-2.429
					l6.656-19.349c0.309-0.899-0.121-1.885-0.99-2.269L1266.205,686.651z"/>
				
					<linearGradient id="SVGID_00000146476323461874433590000008234336535875704213_" gradientUnits="userSpaceOnUse" x1="2003.5044" y1="862.9574" x2="1929.5048" y2="968.9569" gradientTransform="matrix(-0.746 -0.6659 -0.6659 0.746 3681.9617 -1476.3188)">
					<stop  offset="0" style="stop-color:#FF928E"/>
					<stop  offset="1" style="stop-color:#FEB3B1"/>
				</linearGradient>
				<path style="fill:url(#SVGID_00000146476323461874433590000008234336535875704213_);" d="M1263.53,689.398
					c0,0,16.723-11.473,17.945-1.811c1.222,9.662-15.059,13.995-23.123,10.393L1263.53,689.398z"/>
			</g>
			<g>
				
					<linearGradient id="SVGID_00000171702734194053857300000004925924202443826060_" gradientUnits="userSpaceOnUse" x1="1230.999" y1="722.7739" x2="1322.6471" y2="542.434">
					<stop  offset="0" style="stop-color:#4042E2"/>
					<stop  offset="1" style="stop-color:#4F52FF"/>
				</linearGradient>
				<path style="fill:url(#SVGID_00000171702734194053857300000004925924202443826060_);" d="M1221.712,635.108
					c34.312-64.812,123.245-5.933,81.856,48.665C1272.795,663.312,1238.023,632.896,1221.712,635.108z"/>
			</g>
			
				<linearGradient id="SVGID_00000128466989882543244320000000163017120441207173_" gradientUnits="userSpaceOnUse" x1="1322.4385" y1="554.3177" x2="1128.8237" y2="755.3222">
				<stop  offset="0" style="stop-color:#4042E2"/>
				<stop  offset="1" style="stop-color:#4F52FF"/>
			</linearGradient>
			<path style="fill:url(#SVGID_00000128466989882543244320000000163017120441207173_);" d="M1275.306,662.563l-61.614-1.906
				c-1.565-0.048-2.994-0.914-3.752-2.284c-5.52-9.967-13.596-16.317-23.695-19.805c-1.278-0.441-1.013-2.325,0.335-2.417
				l37.774-2.569c0.042-0.003,0.084-0.003,0.126,0c18.826,1.447,35.491,12.774,51.389,27.612
				C1276.4,661.691,1276.031,662.586,1275.306,662.563z"/>
			
				<linearGradient id="SVGID_00000165207405707051014340000000790406734582256277_" gradientUnits="userSpaceOnUse" x1="1403.6395" y1="801.4303" x2="1110.9568" y2="1262.6279">
				<stop  offset="0" style="stop-color:#FE7062"/>
				<stop  offset="1" style="stop-color:#FF928E"/>
			</linearGradient>
			<path style="fill:url(#SVGID_00000165207405707051014340000000790406734582256277_);" d="M1342.495,873.562
				c-37.622-42.238-33.811-74.754,8.653-98.161c0,0,70.387,47.825,81.963,108.462c-13.299,0.98-37.501,4.439-61.188,16.4
				C1366.716,871.631,1342.495,873.562,1342.495,873.562z"/>
			
				<linearGradient id="SVGID_00000003807648114324586100000012291662047459151523_" gradientUnits="userSpaceOnUse" x1="1251.8324" y1="974.0973" x2="1513.8328" y2="870.0973">
				<stop  offset="0" style="stop-color:#FF928E"/>
				<stop  offset="1" style="stop-color:#FEB3B1"/>
			</linearGradient>
			<path style="fill:url(#SVGID_00000003807648114324586100000012291662047459151523_);" d="M1260.734,917.028
				c0,0,79.027,44.662,105.692,6.526c5.536-7.918,6.859-15.788,5.496-23.291c23.688-11.961,47.889-15.42,61.188-16.4
				c3.49,18.28,1.645,37.722-9.097,57.372c-46.708,85.442-173.738-4.722-173.738-4.722L1260.734,917.028z"/>
			<g>
				
					<linearGradient id="SVGID_00000037685500975979921350000017199777116570062981_" gradientUnits="userSpaceOnUse" x1="10222.7793" y1="828.7542" x2="10324.1963" y2="1251.3252" gradientTransform="matrix(-1 0 0 1 11410.3076 0)">
					<stop  offset="0" style="stop-color:#4042E2"/>
					<stop  offset="1" style="stop-color:#4F52FF"/>
				</linearGradient>
				<path style="fill:url(#SVGID_00000037685500975979921350000017199777116570062981_);" d="M1270.228,973.53l-43.13-150.62
					c-0.49-1.71-1.948-2.957-3.715-3.163c-7.814-0.911-30.458-3.471-56.601-5.683c-31.491-2.664-68.061-4.822-89.915-2.986
					c-3.106,0.261-4.984,3.547-3.602,6.342c12.427,25.141,63.544,127.412,89.142,160.914c0.848,1.11,2.159,1.759,3.557,1.746
					l100.069-0.931C1268.945,979.123,1271.03,976.33,1270.228,973.53z"/>
				
					<linearGradient id="SVGID_00000160912286340385568400000002684035113052446893_" gradientUnits="userSpaceOnUse" x1="1128.423" y1="804.71" x2="1166.1022" y2="804.71">
					<stop  offset="0" style="stop-color:#DAE3FE"/>
					<stop  offset="1" style="stop-color:#E9EFFD"/>
				</linearGradient>
				<path style="fill:url(#SVGID_00000160912286340385568400000002684035113052446893_);" d="M1162.309,801.007l-31.271-5.21
					c-1.665-0.277-3.029,1.314-2.5,2.917l3.095,9.38c0.269,0.817,0.982,1.408,1.834,1.521l30.091,4.019
					c1.557,0.208,2.84-1.206,2.483-2.736l-1.917-8.189C1163.919,801.827,1163.203,801.156,1162.309,801.007z"/>
				<path style="fill:#BDD0FB;" d="M1185.723,827.48l-2.576-13.418c-0.258-1.346-1.369-2.363-2.732-2.501l-63.158-6.409
					c-2.126-0.216-3.828,1.732-3.329,3.81l4.016,16.721c0.321,1.338,1.486,2.304,2.86,2.373l61.719,3.107
					C1184.53,831.263,1186.102,829.455,1185.723,827.48z"/>
				
					<linearGradient id="SVGID_00000037687280439526857780000012470366482684472481_" gradientUnits="userSpaceOnUse" x1="1001.7338" y1="6677.9316" x2="1233.7339" y2="6531.9316" gradientTransform="matrix(-1 0 0 1 11410.3076 0)">
					<stop  offset="0" style="stop-color:#FF928E"/>
					<stop  offset="1" style="stop-color:#FEB3B1"/>
				</linearGradient>
				<path style="fill:url(#SVGID_00000037687280439526857780000012470366482684472481_);" d="M1259.808,937.141
					c0,0,6.008-24.705,3.585-33.47c-2.423-8.765-7.119-20.034-22.771-17.529c-15.651,2.504-34.114,9.097-34.114,9.097
					s0.933,11.417,12.828,7.733l-7.376,5.708c0,0,1.054,9.141,11.101,4.258l-6.86,7.57c0,0,4.315,7.507,11.707,2.692
					C1235.301,918.383,1238.844,940.115,1259.808,937.141z"/>
			</g>
			<g>
				
					<linearGradient id="SVGID_00000054974013566769308850000003689698565042111625_" gradientUnits="userSpaceOnUse" x1="-5503.9087" y1="1019.6228" x2="-5006.5664" y2="717.2982" gradientTransform="matrix(1 0 0 1 6556.8267 0)">
					<stop  offset="0" style="stop-color:#E1473D"/>
					<stop  offset="1" style="stop-color:#E9605A"/>
				</linearGradient>
				<path style="fill:url(#SVGID_00000054974013566769308850000003689698565042111625_);" d="M1284.853,843.096
					c4.933,0.397,46.657,1.734,46.657,1.734l-1.684,42.005l-21.615,12.191l-23.359-12.191V843.096z"/>
				
					<linearGradient id="SVGID_00000105422266038499822200000016121611055160554411_" gradientUnits="userSpaceOnUse" x1="1373.6726" y1="741.7283" x2="1276.1261" y2="904.3056">
					<stop  offset="0" style="stop-color:#E1473D"/>
					<stop  offset="1" style="stop-color:#E9605A"/>
				</linearGradient>
				<polygon style="fill:url(#SVGID_00000105422266038499822200000016121611055160554411_);" points="1281.539,843.096 
					1331.416,844.83 1333.455,860.945 1307.497,867.689 1279.905,855.392 				"/>
			</g>
		</g>
		<g>
			
				<linearGradient id="SVGID_00000183233130989769703700000002798511613010090664_" gradientUnits="userSpaceOnUse" x1="1958.8685" y1="1137.6456" x2="1894.8679" y2="1591.6475">
				<stop  offset="0" style="stop-color:#09005D"/>
				<stop  offset="1" style="stop-color:#1A0F91"/>
			</linearGradient>
			
				<rect x="1585.795" y="1375.67" style="fill:url(#SVGID_00000183233130989769703700000002798511613010090664_);" width="673.281" height="40.851"/>
			
				<linearGradient id="SVGID_00000179613366241041067480000009023739952309342399_" gradientUnits="userSpaceOnUse" x1="1455.1228" y1="1379.9796" x2="1474.5028" y2="1455.705" gradientTransform="matrix(-1 0 0 1 3724 0)">
				<stop  offset="0" style="stop-color:#09005D"/>
				<stop  offset="1" style="stop-color:#1A0F91"/>
			</linearGradient>
			<path style="fill:url(#SVGID_00000179613366241041067480000009023739952309342399_);" d="M2259.075,1422.572h6.96
				c3.677,0,6.657-2.98,6.657-6.657v-49.323h-13.617V1422.572z"/>
			
				<linearGradient id="SVGID_00000015312741802449389150000010693531601107978911_" gradientUnits="userSpaceOnUse" x1="1791.7271" y1="1301.9579" x2="1817.3925" y2="1858.052" gradientTransform="matrix(-1 0 0 1 3724 0)">
				<stop  offset="0" style="stop-color:#4042E2"/>
				<stop  offset="1" style="stop-color:#4F52FF"/>
			</linearGradient>
			<path style="fill:url(#SVGID_00000015312741802449389150000010693531601107978911_);" d="M1597.142,1128.686
				c0-10.2,10.159-18.547,26.591-18.547h618.948c16.432,0,30.011,8.346,30.011,18.547v232.05c0,10.201-13.579,18.716-30.011,18.716
				h-618.948c-16.432,0-26.591-8.516-26.591-18.716V1128.686z"/>
			
				<linearGradient id="SVGID_00000085948959184795596620000007441888808219476097_" gradientUnits="userSpaceOnUse" x1="1612.2719" y1="1244.4176" x2="2253.0234" y2="1244.4176">
				<stop  offset="0" style="stop-color:#DAE3FE"/>
				<stop  offset="1" style="stop-color:#E9EFFD"/>
			</linearGradient>
			<path style="opacity:0.11;fill:url(#SVGID_00000085948959184795596620000007441888808219476097_);" d="M1612.272,1138.037
				c0-9.333,12.849-15.794,28.345-15.794h583.897c15.496,0,28.509,6.461,28.509,15.794v212.115c0,9.333-13.013,16.44-28.509,16.44
				h-583.897c-15.496,0-28.345-7.106-28.345-16.44V1138.037z"/>
			
				<linearGradient id="SVGID_00000103251131381850983100000011020990454593231796_" gradientUnits="userSpaceOnUse" x1="2213.2578" y1="1350.3317" x2="2232.8818" y2="1775.5277" gradientTransform="matrix(-1 0 0 1 3724 0)">
				<stop  offset="0" style="stop-color:#4042E2"/>
				<stop  offset="1" style="stop-color:#4F52FF"/>
			</linearGradient>
			<path style="fill:url(#SVGID_00000103251131381850983100000011020990454593231796_);" d="M1431.512,1292.278l30.518-93.13
				c0.765-2.364,2.97-2.768,5.455-2.768c21.3,0,117.553,0,123.605,0v220.14h-166.805L1431.512,1292.278z"/>
			<path style="fill:#91B3FA;" d="M1422.051,1384.298c1.642-1.079,4.297-1.663,6.586-1.62l128.174,2.463l0.73,36.326l-128.965,3.138
				c-4.682,0-9.968-2.258-9.968-5.424v-30.773C1418.609,1386.859,1420.409,1385.377,1422.051,1384.298z"/>
			<g>
				<path style="fill:#91B3FA;" d="M1455.336,1286.722l18.446-73.01c0.644-2.544,2.933-4.471,5.557-4.471h72.145
					c1.55,0,3.033,0.773,4.113,1.885c1.079,1.112,1.663,2.686,1.617,4.235l-1.73,58.544c-0.081,2.748-2.101,5.069-4.815,5.508
					l-88.861,14.365c-1.905,0.308-3.838-0.359-5.141-1.783C1455.362,1290.572,1454.862,1288.593,1455.336,1286.722z"/>
				<path style="fill:#91B3FA;" d="M1459.022,1208.342l0.941,0.156c1.597,0.265,3.007,1.192,3.883,2.552
					c0.876,1.361,1.136,3.028,0.716,4.591l-20.107,74.775c-0.778,2.891-3.649,4.697-6.592,4.146l-6.35-1.191L1459.022,1208.342z"/>
			</g>
			<path style="fill:#91B3FA;" d="M1556.291,1304.467c0-2.874-2.33-5.203-5.203-5.203h-22.879c-2.874,0-5.203,2.33-5.203,5.203v0.94
				c0,2.874,2.33,5.203,5.203,5.203h22.879c2.874,0,5.203-2.33,5.203-5.203V1304.467z"/>
			
				<linearGradient id="SVGID_00000106149690673870667400000010709025189260202662_" gradientUnits="userSpaceOnUse" x1="1515.3516" y1="1163.167" x2="1591.0898" y2="1163.167">
				<stop  offset="0" style="stop-color:#09005D"/>
				<stop  offset="1" style="stop-color:#1A0F91"/>
			</linearGradient>
			<path style="fill:url(#SVGID_00000106149690673870667400000010709025189260202662_);" d="M1581.615,1129.983
				c1.924-0.14,4.829,0.201,6.242,1.514c1.414,1.313,3.232,2.831,3.232,4.76v60.123h-75.738
				C1515.352,1196.38,1519.372,1134.525,1581.615,1129.983z"/>
			<g>
				<g>
					
						<linearGradient id="SVGID_00000155145905701153336130000016746480936256793732_" gradientUnits="userSpaceOnUse" x1="2154.9023" y1="1888.75" x2="2196.9026" y2="1536.7501" gradientTransform="matrix(-1 0 0 1 3724 0)">
						<stop  offset="0" style="stop-color:#09005D"/>
						<stop  offset="1" style="stop-color:#1A0F91"/>
					</linearGradient>
					
						<circle style="fill:url(#SVGID_00000155145905701153336130000016746480936256793732_);" cx="1513.464" cy="1422.494" r="58.134"/>
					
						<ellipse transform="matrix(0.2298 -0.9732 0.9732 0.2298 -218.6995 2568.6489)" style="fill:#7D97F4;" cx="1513.464" cy="1422.494" rx="47.211" ry="47.211"/>
					<path style="fill:#BDD0FB;" d="M1473.81,1439.75c-0.384,0-0.749-0.225-0.908-0.601c-2.232-5.275-3.363-10.879-3.363-16.654
						c0-23.592,19.193-42.786,42.785-42.786c7.318,0,14.54,1.88,20.887,5.436c0.475,0.266,0.644,0.866,0.378,1.341
						c-0.267,0.475-0.866,0.647-1.341,0.377c-6.053-3.391-12.942-5.184-19.923-5.184c-22.505,0-40.815,18.309-40.815,40.815
						c0,5.51,1.079,10.855,3.207,15.886c0.212,0.501-0.022,1.08-0.523,1.291C1474.068,1439.725,1473.938,1439.75,1473.81,1439.75z"
						/>
				</g>
				
					<linearGradient id="SVGID_00000151543390568766581670000015820883826561370800_" gradientUnits="userSpaceOnUse" x1="2231.8723" y1="1387.5344" x2="2172.7769" y2="1484.36" gradientTransform="matrix(-1 0 0 1 3724 0)">
					<stop  offset="0" style="stop-color:#09005D"/>
					<stop  offset="1" style="stop-color:#1A0F91"/>
				</linearGradient>
				<path style="fill:url(#SVGID_00000151543390568766581670000015820883826561370800_);" d="M1491.813,1422.494
					c0,11.958,9.694,21.651,21.651,21.651s21.651-9.694,21.651-21.651c0-11.958-9.694-21.651-21.651-21.651
					S1491.813,1410.536,1491.813,1422.494z"/>
			</g>
			<g>
				<g>
					
						<linearGradient id="SVGID_00000092453046837756576230000003996975832352286090_" gradientUnits="userSpaceOnUse" x1="1609.821" y1="1823.7118" x2="1651.8213" y2="1471.7119" gradientTransform="matrix(-1 0 0 1 3724 0)">
						<stop  offset="0" style="stop-color:#09005D"/>
						<stop  offset="1" style="stop-color:#1A0F91"/>
					</linearGradient>
					
						<circle style="fill:url(#SVGID_00000092453046837756576230000003996975832352286090_);" cx="2066.5" cy="1424.116" r="58.134"/>
					
						<ellipse transform="matrix(0.0625 -0.998 0.998 0.0625 516 3397.5588)" style="fill:#7D97F4;" cx="2066.5" cy="1424.116" rx="47.211" ry="47.211"/>
					<path style="fill:#BDD0FB;" d="M2026.845,1441.372c-0.384,0-0.749-0.225-0.908-0.601c-2.231-5.277-3.363-10.88-3.363-16.655
						c0-23.592,19.193-42.785,42.785-42.785c7.319,0,14.541,1.88,20.887,5.437c0.475,0.266,0.644,0.866,0.378,1.341
						c-0.266,0.474-0.867,0.646-1.342,0.377c-6.052-3.392-12.942-5.185-19.923-5.185c-22.505,0-40.814,18.309-40.814,40.815
						c0,5.51,1.079,10.855,3.207,15.887c0.212,0.501-0.023,1.08-0.523,1.291C2027.102,1441.347,2026.973,1441.372,2026.845,1441.372
						z"/>
				</g>
				
					<linearGradient id="SVGID_00000015346998599368000890000012412274008901131164_" gradientUnits="userSpaceOnUse" x1="1678.8372" y1="1389.1563" x2="1619.7418" y2="1485.9818" gradientTransform="matrix(-1 0 0 1 3724 0)">
					<stop  offset="0" style="stop-color:#09005D"/>
					<stop  offset="1" style="stop-color:#1A0F91"/>
				</linearGradient>
				<circle style="fill:url(#SVGID_00000015346998599368000890000012412274008901131164_);" cx="2066.5" cy="1424.116" r="21.651"/>
			</g>
			<g>
				<g>
					
						<linearGradient id="SVGID_00000029018937150152197340000013418170350469776573_" gradientUnits="userSpaceOnUse" x1="1932.8268" y1="1862.2526" x2="1974.827" y2="1510.2527" gradientTransform="matrix(-1 0 0 1 3724 0)">
						<stop  offset="0" style="stop-color:#09005D"/>
						<stop  offset="1" style="stop-color:#1A0F91"/>
					</linearGradient>
					
						<circle style="fill:url(#SVGID_00000029018937150152197340000013418170350469776573_);" cx="1738.895" cy="1424.116" r="58.134"/>
					
						<ellipse transform="matrix(0.0985 -0.9951 0.9951 0.0985 150.3635 3014.2192)" style="fill:#7D97F4;" cx="1738.895" cy="1424.116" rx="47.211" ry="47.211"/>
					<path style="fill:#BDD0FB;" d="M1699.24,1441.372c-0.384,0-0.749-0.225-0.908-0.601c-2.231-5.275-3.363-10.88-3.363-16.655
						c0-23.592,19.193-42.785,42.785-42.785c7.318,0,14.541,1.88,20.886,5.437c0.475,0.266,0.644,0.866,0.378,1.341
						c-0.266,0.474-0.866,0.646-1.341,0.377c-6.052-3.392-12.942-5.185-19.923-5.185c-22.505,0-40.814,18.309-40.814,40.815
						c0,5.511,1.079,10.856,3.207,15.887c0.212,0.501-0.022,1.08-0.523,1.291C1699.498,1441.347,1699.368,1441.372,1699.24,1441.372
						z"/>
				</g>
				
					<linearGradient id="SVGID_00000014611274391721329500000016971965799068267395_" gradientUnits="userSpaceOnUse" x1="2006.4415" y1="1389.1563" x2="1947.3462" y2="1485.9818" gradientTransform="matrix(-1 0 0 1 3724 0)">
					<stop  offset="0" style="stop-color:#09005D"/>
					<stop  offset="1" style="stop-color:#1A0F91"/>
				</linearGradient>
				
					<circle style="fill:url(#SVGID_00000014611274391721329500000016971965799068267395_);" cx="1738.895" cy="1424.116" r="21.651"/>
			</g>
			<g>
				<g>
					
						<linearGradient id="SVGID_00000019663000119470429460000009411713279590654610_" gradientUnits="userSpaceOnUse" x1="1478.6998" y1="1808.0669" x2="1520.7001" y2="1456.067" gradientTransform="matrix(-1 0 0 1 3724 0)">
						<stop  offset="0" style="stop-color:#09005D"/>
						<stop  offset="1" style="stop-color:#1A0F91"/>
					</linearGradient>
					
						<circle style="fill:url(#SVGID_00000019663000119470429460000009411713279590654610_);" cx="2199.488" cy="1424.116" r="58.134"/>
					
						<ellipse transform="matrix(0.0625 -0.998 0.998 0.0625 640.6754 3530.2866)" style="fill:#7D97F4;" cx="2199.488" cy="1424.116" rx="47.211" ry="47.211"/>
					<path style="fill:#BDD0FB;" d="M2159.833,1441.372c-0.384,0-0.749-0.225-0.908-0.601c-2.231-5.276-3.363-10.88-3.363-16.655
						c0-23.592,19.193-42.785,42.785-42.785c7.318,0,14.541,1.88,20.886,5.437c0.475,0.266,0.644,0.866,0.378,1.341
						c-0.266,0.474-0.867,0.646-1.341,0.377c-6.052-3.392-12.942-5.185-19.923-5.185c-22.505,0-40.815,18.309-40.815,40.815
						c0,5.51,1.079,10.855,3.207,15.887c0.212,0.501-0.022,1.08-0.523,1.291C2160.091,1441.347,2159.961,1441.372,2159.833,1441.372
						z"/>
				</g>
				
					<linearGradient id="SVGID_00000179630100268325181790000018038618595290969277_" gradientUnits="userSpaceOnUse" x1="1545.8492" y1="1389.1563" x2="1486.7539" y2="1485.9817" gradientTransform="matrix(-1 0 0 1 3724 0)">
					<stop  offset="0" style="stop-color:#09005D"/>
					<stop  offset="1" style="stop-color:#1A0F91"/>
				</linearGradient>
				
					<circle style="fill:url(#SVGID_00000179630100268325181790000018038618595290969277_);" cx="2199.488" cy="1424.116" r="21.651"/>
			</g>
			<g>
				<path style="fill:#91B3FA;" d="M1449.625,1351.905c0-3.169-2.569-5.739-5.739-5.739h-15.757c-3.169,0-5.739,2.569-5.739,5.739
					v17.27c0,3.169,2.569,5.739,5.739,5.739h15.757c3.169,0,5.739-2.569,5.739-5.739V1351.905z"/>
				<path style="opacity:0.8;fill:#FFFFFF;" d="M1439.034,1346.166v33.286h4.086c3.166,0,8.775-3.369,8.775-6.534v-18.878
					c0-3.166-5.609-7.873-8.775-7.873H1439.034z"/>
			</g>
			<path style="fill:#91B3FA;" d="M1582.012,1344.126c-0.544,0-0.985-0.441-0.985-0.985v-133.9c0-0.545,0.441-0.985,0.985-0.985
				s0.985,0.441,0.985,0.985v133.9C1582.998,1343.685,1582.556,1344.126,1582.012,1344.126z"/>
			<path style="fill:#91B3FA;" d="M1529.084,1189.197c-0.106,0-0.215-0.017-0.321-0.054c-0.514-0.177-0.788-0.738-0.61-1.253
				c5.111-14.81,15.203-34.345,34.256-43.303c11.463-5.39,20.614-4.376,20.999-4.333c0.54,0.065,0.925,0.553,0.862,1.094
				c-0.063,0.54-0.552,0.938-1.093,0.863c-0.089-0.009-9.067-0.98-20.037,4.211c-18.365,8.69-28.149,27.697-33.123,42.111
				C1529.874,1188.941,1529.492,1189.197,1529.084,1189.197z"/>
		</g>
	</g>
</g>
</svg>
